<svg xmlns="http://www.w3.org/2000/svg" xmlns:xlink="http://www.w3.org/1999/xlink" width="2000" zoomAndPan="magnify" viewBox="0 0 1500 1499.999933" height="2000" preserveAspectRatio="xMidYMid meet" version="1.0"><defs><clipPath id="2f4d94a523"><path d="M 482.726562 604 L 519 604 L 519 641 L 482.726562 641 Z M 482.726562 604 " clip-rule="nonzero"/></clipPath><clipPath id="5c93ed32ca"><path d="M 778 318.28125 L 866 318.28125 L 866 406 L 778 406 Z M 778 318.28125 " clip-rule="nonzero"/></clipPath><clipPath id="d7f673f58a"><path d="M 981 472 L 1017.476562 472 L 1017.476562 509 L 981 509 Z M 981 472 " clip-rule="nonzero"/></clipPath></defs><path fill="#94acff" d="M 685.742188 699.117188 C 689.425781 693.617188 692.570312 687.824219 695.167969 681.734375 C 708.503906 649.605469 736.78125 567.496094 685.429688 551.136719 C 621.257812 530.722656 488.503906 543.128906 532.21875 730.742188 C 575.9375 918.359375 696.613281 897.128906 729.601562 875.082031 C 762.589844 853.035156 768.105469 776.453125 714.363281 748.394531 C 673.976562 727.335938 680.152344 707.707031 685.742188 699.117188 Z M 685.742188 699.117188 " fill-opacity="1" fill-rule="nonzero"/><path fill="#94acff" d="M 721.683594 494.117188 C 721.683594 495.539062 721.613281 496.957031 721.476562 498.371094 C 721.335938 499.785156 721.128906 501.191406 720.851562 502.582031 C 720.574219 503.976562 720.230469 505.355469 719.816406 506.714844 C 719.402344 508.074219 718.925781 509.410156 718.382812 510.722656 C 717.835938 512.035156 717.230469 513.316406 716.558594 514.570312 C 715.890625 515.824219 715.160156 517.042969 714.371094 518.222656 C 713.582031 519.40625 712.734375 520.542969 711.832031 521.644531 C 710.929688 522.742188 709.976562 523.792969 708.972656 524.796875 C 707.96875 525.800781 706.914062 526.753906 705.816406 527.65625 C 704.71875 528.558594 703.578125 529.402344 702.394531 530.195312 C 701.214844 530.984375 699.996094 531.710938 698.742188 532.382812 C 697.488281 533.050781 696.203125 533.660156 694.890625 534.203125 C 693.578125 534.746094 692.242188 535.226562 690.878906 535.636719 C 689.519531 536.050781 688.144531 536.394531 686.75 536.671875 C 685.355469 536.949219 683.949219 537.15625 682.535156 537.296875 C 681.121094 537.4375 679.703125 537.503906 678.28125 537.503906 C 676.859375 537.503906 675.441406 537.4375 674.027344 537.296875 C 672.613281 537.15625 671.207031 536.949219 669.8125 536.671875 C 668.417969 536.394531 667.042969 536.050781 665.683594 535.636719 C 664.320312 535.226562 662.984375 534.746094 661.671875 534.203125 C 660.359375 533.660156 659.074219 533.050781 657.820312 532.382812 C 656.566406 531.710938 655.347656 530.984375 654.167969 530.195312 C 652.984375 529.402344 651.84375 528.558594 650.746094 527.65625 C 649.648438 526.753906 648.59375 525.800781 647.589844 524.796875 C 646.585938 523.792969 645.632812 522.742188 644.730469 521.644531 C 643.828125 520.542969 642.980469 519.40625 642.191406 518.222656 C 641.402344 517.042969 640.671875 515.824219 640.003906 514.570312 C 639.332031 513.316406 638.726562 512.035156 638.179688 510.722656 C 637.636719 509.410156 637.160156 508.074219 636.746094 506.714844 C 636.332031 505.355469 635.988281 503.976562 635.710938 502.582031 C 635.433594 501.191406 635.226562 499.785156 635.085938 498.371094 C 634.945312 496.957031 634.878906 495.539062 634.878906 494.117188 C 634.878906 492.699219 634.945312 491.28125 635.085938 489.867188 C 635.226562 488.453125 635.433594 487.046875 635.710938 485.65625 C 635.988281 484.261719 636.332031 482.882812 636.746094 481.523438 C 637.160156 480.164062 637.636719 478.828125 638.179688 477.515625 C 638.726562 476.203125 639.332031 474.917969 640.003906 473.667969 C 640.671875 472.414062 641.402344 471.195312 642.191406 470.015625 C 642.980469 468.832031 643.828125 467.691406 644.730469 466.59375 C 645.632812 465.496094 646.585938 464.445312 647.589844 463.441406 C 648.59375 462.433594 649.648438 461.480469 650.746094 460.582031 C 651.84375 459.679688 652.984375 458.832031 654.167969 458.042969 C 655.347656 457.253906 656.566406 456.523438 657.820312 455.855469 C 659.074219 455.1875 660.359375 454.578125 661.671875 454.035156 C 662.984375 453.492188 664.320312 453.011719 665.683594 452.601562 C 667.042969 452.1875 668.417969 451.84375 669.8125 451.566406 C 671.207031 451.289062 672.613281 451.082031 674.027344 450.941406 C 675.441406 450.800781 676.859375 450.734375 678.28125 450.734375 C 679.703125 450.734375 681.121094 450.800781 682.535156 450.941406 C 683.949219 451.082031 685.355469 451.289062 686.75 451.566406 C 688.144531 451.84375 689.519531 452.1875 690.878906 452.601562 C 692.242188 453.011719 693.578125 453.492188 694.890625 454.035156 C 696.203125 454.578125 697.488281 455.1875 698.742188 455.855469 C 699.996094 456.523438 701.214844 457.253906 702.394531 458.042969 C 703.578125 458.832031 704.71875 459.679688 705.816406 460.582031 C 706.914062 461.480469 707.96875 462.433594 708.972656 463.441406 C 709.976562 464.445312 710.929688 465.496094 711.832031 466.59375 C 712.734375 467.691406 713.582031 468.832031 714.371094 470.015625 C 715.160156 471.195312 715.890625 472.414062 716.558594 473.667969 C 717.230469 474.917969 717.835938 476.203125 718.382812 477.515625 C 718.925781 478.828125 719.402344 480.164062 719.816406 481.523438 C 720.230469 482.882812 720.574219 484.261719 720.851562 485.65625 C 721.128906 487.046875 721.335938 488.453125 721.476562 489.867188 C 721.613281 491.28125 721.683594 492.699219 721.683594 494.117188 Z M 721.683594 494.117188 " fill-opacity="1" fill-rule="nonzero"/><path fill="#94acff" d="M 628.136719 512.160156 C 628.136719 512.992188 628.097656 513.820312 628.015625 514.644531 C 627.933594 515.472656 627.8125 516.292969 627.652344 517.105469 C 627.488281 517.917969 627.289062 518.722656 627.046875 519.519531 C 626.804688 520.3125 626.527344 521.09375 626.207031 521.859375 C 625.890625 522.628906 625.535156 523.375 625.144531 524.109375 C 624.753906 524.839844 624.328125 525.550781 623.867188 526.242188 C 623.402344 526.933594 622.910156 527.597656 622.382812 528.238281 C 621.855469 528.882812 621.300781 529.496094 620.710938 530.082031 C 620.125 530.667969 619.511719 531.226562 618.867188 531.753906 C 618.226562 532.277344 617.5625 532.773438 616.871094 533.234375 C 616.179688 533.695312 615.46875 534.121094 614.734375 534.511719 C 614.003906 534.902344 613.253906 535.257812 612.488281 535.578125 C 611.71875 535.894531 610.9375 536.171875 610.144531 536.414062 C 609.347656 536.65625 608.546875 536.855469 607.730469 537.019531 C 606.917969 537.179688 606.097656 537.300781 605.269531 537.382812 C 604.441406 537.464844 603.613281 537.503906 602.785156 537.503906 C 601.953125 537.503906 601.125 537.464844 600.300781 537.382812 C 599.472656 537.300781 598.652344 537.179688 597.839844 537.019531 C 597.023438 536.855469 596.21875 536.65625 595.425781 536.414062 C 594.628906 536.171875 593.847656 535.894531 593.082031 535.578125 C 592.316406 535.257812 591.566406 534.902344 590.832031 534.511719 C 590.101562 534.121094 589.390625 533.695312 588.699219 533.234375 C 588.007812 532.773438 587.339844 532.277344 586.699219 531.753906 C 586.058594 531.226562 585.441406 530.667969 584.855469 530.082031 C 584.269531 529.496094 583.710938 528.882812 583.183594 528.238281 C 582.660156 527.597656 582.164062 526.933594 581.703125 526.242188 C 581.242188 525.550781 580.816406 524.839844 580.425781 524.109375 C 580.03125 523.375 579.679688 522.628906 579.359375 521.859375 C 579.042969 521.09375 578.761719 520.3125 578.523438 519.519531 C 578.28125 518.722656 578.078125 517.917969 577.917969 517.105469 C 577.753906 516.292969 577.632812 515.472656 577.550781 514.644531 C 577.472656 513.820312 577.429688 512.992188 577.429688 512.160156 C 577.429688 511.332031 577.472656 510.503906 577.550781 509.675781 C 577.632812 508.851562 577.753906 508.03125 577.917969 507.21875 C 578.078125 506.402344 578.28125 505.597656 578.523438 504.804688 C 578.761719 504.011719 579.042969 503.230469 579.359375 502.460938 C 579.679688 501.695312 580.03125 500.945312 580.425781 500.214844 C 580.816406 499.480469 581.242188 498.769531 581.703125 498.082031 C 582.164062 497.390625 582.660156 496.726562 583.183594 496.082031 C 583.710938 495.441406 584.269531 494.828125 584.855469 494.242188 C 585.441406 493.652344 586.058594 493.097656 586.699219 492.570312 C 587.339844 492.042969 588.007812 491.550781 588.699219 491.089844 C 589.390625 490.628906 590.101562 490.199219 590.832031 489.808594 C 591.566406 489.417969 592.316406 489.0625 593.082031 488.746094 C 593.847656 488.429688 594.628906 488.148438 595.425781 487.910156 C 596.21875 487.667969 597.023438 487.464844 597.839844 487.304688 C 598.652344 487.140625 599.472656 487.019531 600.300781 486.9375 C 601.125 486.859375 601.953125 486.816406 602.785156 486.816406 C 603.613281 486.816406 604.441406 486.859375 605.269531 486.9375 C 606.097656 487.019531 606.917969 487.140625 607.730469 487.304688 C 608.546875 487.464844 609.347656 487.667969 610.144531 487.910156 C 610.9375 488.148438 611.71875 488.429688 612.488281 488.746094 C 613.253906 489.0625 614.003906 489.417969 614.734375 489.808594 C 615.46875 490.199219 616.179688 490.628906 616.871094 491.089844 C 617.5625 491.550781 618.226562 492.042969 618.867188 492.570312 C 619.511719 493.097656 620.125 493.652344 620.710938 494.242188 C 621.300781 494.828125 621.855469 495.441406 622.382812 496.082031 C 622.910156 496.726562 623.402344 497.390625 623.867188 498.082031 C 624.328125 498.769531 624.753906 499.480469 625.144531 500.214844 C 625.535156 500.945312 625.890625 501.695312 626.207031 502.460938 C 626.527344 503.230469 626.804688 504.011719 627.046875 504.804688 C 627.289062 505.597656 627.488281 506.402344 627.652344 507.21875 C 627.8125 508.03125 627.933594 508.851562 628.015625 509.675781 C 628.097656 510.503906 628.136719 511.332031 628.136719 512.160156 Z M 628.136719 512.160156 " fill-opacity="1" fill-rule="nonzero"/><path fill="#94acff" d="M 577.429688 540.207031 C 577.429688 540.949219 577.394531 541.6875 577.320312 542.425781 C 577.25 543.164062 577.140625 543.898438 576.996094 544.625 C 576.851562 545.355469 576.667969 546.074219 576.453125 546.785156 C 576.238281 547.492188 575.988281 548.191406 575.703125 548.878906 C 575.421875 549.5625 575.101562 550.234375 574.753906 550.886719 C 574.402344 551.542969 574.023438 552.179688 573.609375 552.796875 C 573.199219 553.410156 572.753906 554.007812 572.285156 554.582031 C 571.8125 555.15625 571.316406 555.703125 570.789062 556.230469 C 570.265625 556.753906 569.714844 557.25 569.140625 557.722656 C 568.570312 558.191406 567.972656 558.632812 567.355469 559.046875 C 566.738281 559.457031 566.101562 559.839844 565.449219 560.191406 C 564.792969 560.539062 564.121094 560.855469 563.4375 561.140625 C 562.75 561.425781 562.054688 561.675781 561.34375 561.890625 C 560.632812 562.105469 559.914062 562.285156 559.183594 562.429688 C 558.457031 562.574219 557.722656 562.683594 556.984375 562.757812 C 556.246094 562.828125 555.503906 562.867188 554.761719 562.867188 C 554.019531 562.867188 553.277344 562.828125 552.539062 562.757812 C 551.800781 562.683594 551.066406 562.574219 550.339844 562.429688 C 549.613281 562.285156 548.890625 562.105469 548.183594 561.890625 C 547.472656 561.675781 546.773438 561.425781 546.085938 561.140625 C 545.402344 560.855469 544.730469 560.539062 544.078125 560.191406 C 543.421875 559.839844 542.785156 559.457031 542.167969 559.046875 C 541.550781 558.632812 540.957031 558.191406 540.382812 557.722656 C 539.808594 557.25 539.257812 556.753906 538.734375 556.230469 C 538.207031 555.703125 537.710938 555.15625 537.238281 554.582031 C 536.769531 554.007812 536.328125 553.410156 535.914062 552.796875 C 535.503906 552.179688 535.121094 551.542969 534.769531 550.886719 C 534.421875 550.234375 534.105469 549.5625 533.820312 548.878906 C 533.535156 548.191406 533.285156 547.492188 533.070312 546.785156 C 532.855469 546.074219 532.675781 545.355469 532.53125 544.625 C 532.386719 543.898438 532.277344 543.164062 532.203125 542.425781 C 532.128906 541.6875 532.09375 540.949219 532.09375 540.207031 C 532.09375 539.464844 532.128906 538.722656 532.203125 537.984375 C 532.277344 537.246094 532.386719 536.511719 532.53125 535.785156 C 532.675781 535.058594 532.855469 534.339844 533.070312 533.628906 C 533.285156 532.917969 533.535156 532.222656 533.820312 531.535156 C 534.105469 530.847656 534.421875 530.179688 534.769531 529.523438 C 535.121094 528.871094 535.503906 528.234375 535.914062 527.617188 C 536.328125 527 536.769531 526.40625 537.238281 525.832031 C 537.710938 525.257812 538.207031 524.707031 538.734375 524.183594 C 539.257812 523.660156 539.808594 523.160156 540.382812 522.691406 C 540.957031 522.21875 541.550781 521.777344 542.167969 521.367188 C 542.785156 520.953125 543.421875 520.574219 544.078125 520.222656 C 544.730469 519.875 545.402344 519.554688 546.085938 519.273438 C 546.773438 518.988281 547.472656 518.738281 548.183594 518.523438 C 548.890625 518.308594 549.613281 518.128906 550.339844 517.984375 C 551.066406 517.839844 551.800781 517.730469 552.539062 517.65625 C 553.277344 517.582031 554.019531 517.546875 554.761719 517.546875 C 555.503906 517.546875 556.246094 517.582031 556.984375 517.65625 C 557.722656 517.730469 558.457031 517.839844 559.183594 517.984375 C 559.914062 518.128906 560.632812 518.308594 561.34375 518.523438 C 562.054688 518.738281 562.75 518.988281 563.4375 519.273438 C 564.121094 519.554688 564.792969 519.875 565.449219 520.222656 C 566.101562 520.574219 566.738281 520.953125 567.355469 521.367188 C 567.972656 521.777344 568.570312 522.21875 569.140625 522.691406 C 569.714844 523.160156 570.265625 523.660156 570.789062 524.183594 C 571.316406 524.707031 571.8125 525.257812 572.285156 525.832031 C 572.753906 526.40625 573.199219 527 573.609375 527.617188 C 574.023438 528.234375 574.402344 528.871094 574.753906 529.523438 C 575.101562 530.179688 575.421875 530.847656 575.703125 531.535156 C 575.988281 532.222656 576.238281 532.917969 576.453125 533.628906 C 576.667969 534.339844 576.851562 535.058594 576.996094 535.785156 C 577.140625 536.511719 577.25 537.246094 577.320312 537.984375 C 577.394531 538.722656 577.429688 539.464844 577.429688 540.207031 Z M 577.429688 540.207031 " fill-opacity="1" fill-rule="nonzero"/><path fill="#94acff" d="M 540.121094 577.40625 C 540.121094 578.105469 540.085938 578.804688 540.019531 579.503906 C 539.949219 580.199219 539.847656 580.890625 539.710938 581.578125 C 539.574219 582.265625 539.402344 582.945312 539.199219 583.613281 C 538.996094 584.285156 538.761719 584.945312 538.492188 585.589844 C 538.226562 586.238281 537.925781 586.871094 537.59375 587.488281 C 537.265625 588.105469 536.90625 588.707031 536.515625 589.289062 C 536.125 589.871094 535.710938 590.433594 535.265625 590.972656 C 534.820312 591.515625 534.351562 592.035156 533.855469 592.527344 C 533.359375 593.023438 532.839844 593.496094 532.300781 593.9375 C 531.757812 594.382812 531.195312 594.800781 530.613281 595.1875 C 530.03125 595.578125 529.429688 595.9375 528.8125 596.269531 C 528.195312 596.597656 527.5625 596.898438 526.914062 597.164062 C 526.265625 597.433594 525.605469 597.667969 524.9375 597.871094 C 524.265625 598.074219 523.585938 598.246094 522.898438 598.382812 C 522.210938 598.519531 521.519531 598.621094 520.824219 598.691406 C 520.125 598.757812 519.425781 598.792969 518.726562 598.792969 C 518.023438 598.792969 517.328125 598.757812 516.628906 598.691406 C 515.929688 598.621094 515.238281 598.519531 514.550781 598.382812 C 513.863281 598.246094 513.1875 598.074219 512.515625 597.871094 C 511.84375 597.667969 511.1875 597.433594 510.539062 597.164062 C 509.890625 596.898438 509.257812 596.597656 508.640625 596.269531 C 508.023438 595.9375 507.421875 595.578125 506.839844 595.1875 C 506.257812 594.800781 505.695312 594.382812 505.152344 593.9375 C 504.609375 593.496094 504.09375 593.023438 503.597656 592.527344 C 503.101562 592.035156 502.632812 591.515625 502.1875 590.972656 C 501.742188 590.433594 501.324219 589.871094 500.9375 589.289062 C 500.546875 588.707031 500.1875 588.105469 499.855469 587.488281 C 499.527344 586.871094 499.226562 586.238281 498.960938 585.589844 C 498.691406 584.945312 498.457031 584.285156 498.25 583.613281 C 498.046875 582.945312 497.878906 582.265625 497.742188 581.578125 C 497.605469 580.890625 497.503906 580.199219 497.433594 579.503906 C 497.363281 578.804688 497.332031 578.105469 497.332031 577.40625 C 497.332031 576.707031 497.363281 576.007812 497.433594 575.308594 C 497.503906 574.613281 497.605469 573.921875 497.742188 573.234375 C 497.878906 572.546875 498.046875 571.867188 498.25 571.199219 C 498.457031 570.527344 498.691406 569.867188 498.960938 569.222656 C 499.226562 568.574219 499.527344 567.941406 499.855469 567.324219 C 500.1875 566.707031 500.546875 566.105469 500.9375 565.523438 C 501.324219 564.941406 501.742188 564.378906 502.1875 563.839844 C 502.632812 563.296875 503.101562 562.777344 503.597656 562.28125 C 504.09375 561.789062 504.609375 561.316406 505.152344 560.875 C 505.695312 560.429688 506.257812 560.011719 506.839844 559.625 C 507.421875 559.234375 508.023438 558.875 508.640625 558.542969 C 509.257812 558.214844 509.890625 557.914062 510.539062 557.648438 C 511.1875 557.378906 511.84375 557.144531 512.515625 556.941406 C 513.1875 556.738281 513.863281 556.566406 514.550781 556.429688 C 515.238281 556.292969 515.929688 556.191406 516.628906 556.121094 C 517.328125 556.054688 518.023438 556.019531 518.726562 556.019531 C 519.425781 556.019531 520.125 556.054688 520.824219 556.121094 C 521.519531 556.191406 522.210938 556.292969 522.898438 556.429688 C 523.585938 556.566406 524.265625 556.738281 524.9375 556.941406 C 525.605469 557.144531 526.265625 557.378906 526.914062 557.648438 C 527.5625 557.914062 528.195312 558.214844 528.8125 558.542969 C 529.429688 558.875 530.03125 559.234375 530.613281 559.625 C 531.195312 560.011719 531.757812 560.429688 532.300781 560.875 C 532.839844 561.316406 533.359375 561.789062 533.855469 562.28125 C 534.351562 562.777344 534.820312 563.296875 535.265625 563.839844 C 535.710938 564.378906 536.125 564.941406 536.515625 565.523438 C 536.90625 566.105469 537.265625 566.707031 537.59375 567.324219 C 537.925781 567.941406 538.226562 568.574219 538.492188 569.222656 C 538.761719 569.867188 538.996094 570.527344 539.199219 571.199219 C 539.402344 571.867188 539.574219 572.546875 539.710938 573.234375 C 539.847656 573.921875 539.949219 574.613281 540.019531 575.308594 C 540.085938 576.007812 540.121094 576.707031 540.121094 577.40625 Z M 540.121094 577.40625 " fill-opacity="1" fill-rule="nonzero"/><g clip-path="url(#2f4d94a523)"><path fill="#94acff" d="M 518.726562 622.753906 C 518.726562 623.339844 518.699219 623.925781 518.640625 624.507812 C 518.582031 625.089844 518.496094 625.667969 518.382812 626.242188 C 518.269531 626.816406 518.125 627.382812 517.957031 627.941406 C 517.785156 628.503906 517.589844 629.054688 517.363281 629.59375 C 517.140625 630.132812 516.890625 630.664062 516.613281 631.179688 C 516.339844 631.695312 516.039062 632.195312 515.714844 632.683594 C 515.386719 633.167969 515.039062 633.640625 514.667969 634.09375 C 514.296875 634.542969 513.902344 634.976562 513.488281 635.390625 C 513.074219 635.804688 512.644531 636.199219 512.191406 636.570312 C 511.738281 636.941406 511.269531 637.289062 510.78125 637.613281 C 510.292969 637.9375 509.792969 638.238281 509.277344 638.515625 C 508.761719 638.789062 508.230469 639.039062 507.691406 639.265625 C 507.148438 639.488281 506.597656 639.6875 506.039062 639.855469 C 505.476562 640.027344 504.910156 640.167969 504.335938 640.28125 C 503.761719 640.394531 503.183594 640.480469 502.601562 640.539062 C 502.019531 640.597656 501.433594 640.625 500.847656 640.625 C 500.265625 640.625 499.679688 640.597656 499.097656 640.539062 C 498.515625 640.480469 497.9375 640.394531 497.363281 640.28125 C 496.789062 640.167969 496.21875 640.027344 495.660156 639.855469 C 495.101562 639.6875 494.550781 639.488281 494.007812 639.265625 C 493.46875 639.039062 492.9375 638.789062 492.421875 638.515625 C 491.90625 638.238281 491.40625 637.9375 490.917969 637.613281 C 490.429688 637.289062 489.960938 636.941406 489.507812 636.570312 C 489.054688 636.199219 488.621094 635.804688 488.207031 635.390625 C 487.792969 634.976562 487.402344 634.542969 487.03125 634.09375 C 486.660156 633.640625 486.3125 633.167969 485.984375 632.683594 C 485.660156 632.195312 485.359375 631.695312 485.082031 631.179688 C 484.808594 630.664062 484.558594 630.132812 484.332031 629.59375 C 484.109375 629.054688 483.914062 628.503906 483.742188 627.941406 C 483.574219 627.382812 483.429688 626.816406 483.316406 626.242188 C 483.203125 625.667969 483.117188 625.089844 483.058594 624.507812 C 483 623.925781 482.972656 623.339844 482.972656 622.753906 C 482.972656 622.171875 483 621.585938 483.058594 621.003906 C 483.117188 620.421875 483.203125 619.84375 483.316406 619.269531 C 483.429688 618.695312 483.574219 618.128906 483.742188 617.566406 C 483.914062 617.007812 484.109375 616.457031 484.332031 615.917969 C 484.558594 615.375 484.808594 614.847656 485.082031 614.332031 C 485.359375 613.816406 485.660156 613.3125 485.984375 612.828125 C 486.3125 612.339844 486.660156 611.871094 487.03125 611.417969 C 487.402344 610.964844 487.792969 610.535156 488.207031 610.121094 C 488.621094 609.707031 489.054688 609.3125 489.507812 608.941406 C 489.960938 608.570312 490.429688 608.222656 490.917969 607.898438 C 491.40625 607.570312 491.90625 607.273438 492.421875 606.996094 C 492.9375 606.71875 493.46875 606.46875 494.007812 606.246094 C 494.550781 606.023438 495.101562 605.824219 495.660156 605.65625 C 496.21875 605.484375 496.789062 605.34375 497.363281 605.230469 C 497.9375 605.113281 498.515625 605.027344 499.097656 604.972656 C 499.679688 604.914062 500.265625 604.886719 500.847656 604.886719 C 501.433594 604.886719 502.019531 604.914062 502.601562 604.972656 C 503.183594 605.027344 503.761719 605.113281 504.335938 605.230469 C 504.910156 605.34375 505.476562 605.484375 506.039062 605.65625 C 506.597656 605.824219 507.148438 606.023438 507.691406 606.246094 C 508.230469 606.46875 508.761719 606.71875 509.277344 606.996094 C 509.792969 607.273438 510.292969 607.570312 510.78125 607.898438 C 511.269531 608.222656 511.738281 608.570312 512.191406 608.941406 C 512.644531 609.3125 513.074219 609.707031 513.488281 610.121094 C 513.902344 610.535156 514.296875 610.964844 514.667969 611.417969 C 515.039062 611.871094 515.386719 612.339844 515.714844 612.828125 C 516.039062 613.3125 516.339844 613.816406 516.613281 614.332031 C 516.890625 614.847656 517.140625 615.375 517.363281 615.917969 C 517.589844 616.457031 517.785156 617.007812 517.957031 617.566406 C 518.125 618.128906 518.269531 618.695312 518.382812 619.269531 C 518.496094 619.84375 518.582031 620.421875 518.640625 621.003906 C 518.699219 621.585938 518.726562 622.171875 518.726562 622.753906 Z M 518.726562 622.753906 " fill-opacity="1" fill-rule="nonzero"/></g><path fill="#bd4ab5" d="M 814.429688 566.664062 C 810.738281 561.167969 807.597656 555.375 805.003906 549.28125 C 791.667969 517.15625 763.375 435.046875 814.746094 418.683594 C 878.914062 398.269531 1011.671875 410.675781 967.953125 598.289062 C 924.234375 785.90625 803.511719 764.738281 770.617188 742.628906 C 737.722656 720.519531 732.117188 644 785.871094 615.941406 C 826.179688 594.882812 820.023438 575.191406 814.429688 566.664062 Z M 814.429688 566.664062 " fill-opacity="1" fill-rule="nonzero"/><g clip-path="url(#5c93ed32ca)"><path fill="#bd4ab5" d="M 865.296875 361.667969 C 865.296875 363.085938 865.226562 364.503906 865.085938 365.917969 C 864.945312 367.332031 864.738281 368.738281 864.460938 370.132812 C 864.183594 371.523438 863.839844 372.902344 863.425781 374.261719 C 863.015625 375.621094 862.535156 376.957031 861.992188 378.269531 C 861.449219 379.582031 860.839844 380.867188 860.171875 382.117188 C 859.5 383.371094 858.769531 384.589844 857.980469 385.769531 C 857.191406 386.953125 856.34375 388.09375 855.441406 389.191406 C 854.542969 390.289062 853.589844 391.339844 852.582031 392.34375 C 851.578125 393.351562 850.527344 394.304688 849.425781 395.203125 C 848.328125 396.105469 847.1875 396.953125 846.003906 397.742188 C 844.824219 398.53125 843.605469 399.261719 842.351562 399.929688 C 841.097656 400.601562 839.816406 401.207031 838.5 401.75 C 837.1875 402.292969 835.851562 402.773438 834.492188 403.183594 C 833.132812 403.597656 831.753906 403.941406 830.359375 404.21875 C 828.964844 404.496094 827.5625 404.707031 826.144531 404.84375 C 824.730469 404.984375 823.3125 405.054688 821.890625 405.054688 C 820.46875 405.054688 819.050781 404.984375 817.636719 404.84375 C 816.222656 404.707031 814.820312 404.496094 813.425781 404.21875 C 812.03125 403.941406 810.652344 403.597656 809.292969 403.183594 C 807.933594 402.773438 806.59375 402.292969 805.28125 401.75 C 803.96875 401.207031 802.683594 400.601562 801.429688 399.929688 C 800.179688 399.261719 798.960938 398.53125 797.777344 397.742188 C 796.597656 396.953125 795.457031 396.105469 794.355469 395.203125 C 793.257812 394.304688 792.207031 393.351562 791.199219 392.34375 C 790.195312 391.339844 789.242188 390.289062 788.339844 389.191406 C 787.4375 388.09375 786.59375 386.953125 785.804688 385.769531 C 785.011719 384.589844 784.285156 383.371094 783.613281 382.117188 C 782.941406 380.867188 782.335938 379.582031 781.792969 378.269531 C 781.25 376.957031 780.769531 375.621094 780.355469 374.261719 C 779.945312 372.902344 779.597656 371.523438 779.320312 370.132812 C 779.042969 368.738281 778.835938 367.332031 778.695312 365.917969 C 778.558594 364.503906 778.488281 363.085938 778.488281 361.667969 C 778.488281 360.246094 778.558594 358.828125 778.695312 357.414062 C 778.835938 356 779.042969 354.597656 779.320312 353.203125 C 779.597656 351.808594 779.945312 350.433594 780.355469 349.074219 C 780.769531 347.710938 781.25 346.375 781.792969 345.0625 C 782.335938 343.75 782.941406 342.46875 783.613281 341.214844 C 784.285156 339.960938 785.011719 338.742188 785.804688 337.5625 C 786.59375 336.382812 787.4375 335.242188 788.339844 334.144531 C 789.242188 333.042969 790.195312 331.992188 791.199219 330.988281 C 792.207031 329.984375 793.257812 329.03125 794.355469 328.128906 C 795.457031 327.226562 796.597656 326.382812 797.777344 325.59375 C 798.960938 324.800781 800.179688 324.074219 801.429688 323.402344 C 802.683594 322.734375 803.96875 322.125 805.28125 321.582031 C 806.59375 321.039062 807.933594 320.5625 809.292969 320.148438 C 810.652344 319.734375 812.03125 319.390625 813.425781 319.113281 C 814.820312 318.835938 816.222656 318.628906 817.636719 318.488281 C 819.050781 318.351562 820.46875 318.28125 821.890625 318.28125 C 823.3125 318.28125 824.730469 318.351562 826.144531 318.488281 C 827.5625 318.628906 828.964844 318.835938 830.359375 319.113281 C 831.753906 319.390625 833.132812 319.734375 834.492188 320.148438 C 835.851562 320.5625 837.1875 321.039062 838.5 321.582031 C 839.816406 322.125 841.097656 322.734375 842.351562 323.402344 C 843.605469 324.074219 844.824219 324.800781 846.003906 325.59375 C 847.1875 326.382812 848.328125 327.226562 849.425781 328.128906 C 850.527344 329.03125 851.578125 329.984375 852.582031 330.988281 C 853.589844 331.992188 854.542969 333.042969 855.441406 334.144531 C 856.34375 335.242188 857.191406 336.382812 857.980469 337.5625 C 858.769531 338.742188 859.5 339.960938 860.171875 341.214844 C 860.839844 342.46875 861.449219 343.75 861.992188 345.0625 C 862.535156 346.375 863.015625 347.710938 863.425781 349.074219 C 863.839844 350.433594 864.183594 351.808594 864.460938 353.203125 C 864.738281 354.597656 864.945312 356 865.085938 357.414062 C 865.226562 358.828125 865.296875 360.246094 865.296875 361.667969 Z M 865.296875 361.667969 " fill-opacity="1" fill-rule="nonzero"/></g><path fill="#bd4ab5" d="M 922.726562 379.710938 C 922.726562 380.539062 922.6875 381.367188 922.605469 382.191406 C 922.523438 383.019531 922.402344 383.839844 922.238281 384.652344 C 922.078125 385.46875 921.875 386.273438 921.636719 387.066406 C 921.394531 387.859375 921.113281 388.640625 920.796875 389.40625 C 920.480469 390.175781 920.125 390.925781 919.734375 391.65625 C 919.34375 392.386719 918.914062 393.097656 918.453125 393.789062 C 917.992188 394.480469 917.5 395.144531 916.972656 395.789062 C 916.445312 396.429688 915.886719 397.042969 915.300781 397.628906 C 914.714844 398.21875 914.097656 398.773438 913.457031 399.300781 C 912.816406 399.828125 912.148438 400.320312 911.460938 400.78125 C 910.769531 401.242188 910.058594 401.667969 909.324219 402.0625 C 908.59375 402.453125 907.84375 402.804688 907.074219 403.125 C 906.308594 403.441406 905.527344 403.722656 904.734375 403.960938 C 903.9375 404.203125 903.132812 404.40625 902.320312 404.566406 C 901.503906 404.726562 900.683594 404.851562 899.859375 404.929688 C 899.03125 405.011719 898.203125 405.054688 897.375 405.054688 C 896.542969 405.054688 895.714844 405.011719 894.886719 404.929688 C 894.0625 404.851562 893.242188 404.726562 892.425781 404.566406 C 891.613281 404.40625 890.808594 404.203125 890.011719 403.960938 C 889.21875 403.722656 888.4375 403.441406 887.671875 403.125 C 886.902344 402.804688 886.152344 402.453125 885.421875 402.0625 C 884.6875 401.667969 883.976562 401.242188 883.285156 400.78125 C 882.597656 400.320312 881.929688 399.828125 881.289062 399.300781 C 880.648438 398.773438 880.03125 398.21875 879.445312 397.628906 C 878.859375 397.042969 878.300781 396.429688 877.773438 395.789062 C 877.246094 395.144531 876.753906 394.480469 876.292969 393.789062 C 875.832031 393.097656 875.402344 392.386719 875.011719 391.65625 C 874.621094 390.925781 874.265625 390.175781 873.949219 389.40625 C 873.632812 388.640625 873.351562 387.859375 873.109375 387.066406 C 872.871094 386.273438 872.667969 385.46875 872.507812 384.652344 C 872.34375 383.839844 872.222656 383.019531 872.140625 382.191406 C 872.058594 381.367188 872.019531 380.539062 872.019531 379.710938 C 872.019531 378.878906 872.058594 378.050781 872.140625 377.226562 C 872.222656 376.398438 872.34375 375.578125 872.507812 374.765625 C 872.667969 373.949219 872.871094 373.144531 873.109375 372.351562 C 873.351562 371.558594 873.632812 370.777344 873.949219 370.011719 C 874.265625 369.242188 874.621094 368.492188 875.011719 367.761719 C 875.402344 367.03125 875.832031 366.320312 876.292969 365.628906 C 876.753906 364.9375 877.246094 364.273438 877.773438 363.632812 C 878.300781 362.988281 878.859375 362.375 879.445312 361.789062 C 880.03125 361.203125 880.648438 360.644531 881.289062 360.117188 C 881.929688 359.589844 882.597656 359.097656 883.285156 358.636719 C 883.976562 358.175781 884.6875 357.75 885.421875 357.359375 C 886.152344 356.964844 886.902344 356.613281 887.671875 356.292969 C 888.4375 355.976562 889.21875 355.695312 890.011719 355.457031 C 890.808594 355.214844 891.613281 355.015625 892.425781 354.851562 C 893.242188 354.691406 894.0625 354.570312 894.886719 354.488281 C 895.714844 354.40625 896.542969 354.363281 897.375 354.363281 C 898.203125 354.363281 899.03125 354.40625 899.859375 354.488281 C 900.683594 354.570312 901.503906 354.691406 902.320312 354.851562 C 903.132812 355.015625 903.9375 355.214844 904.734375 355.457031 C 905.527344 355.695312 906.308594 355.976562 907.074219 356.292969 C 907.84375 356.613281 908.59375 356.964844 909.324219 357.359375 C 910.058594 357.75 910.769531 358.175781 911.460938 358.636719 C 912.148438 359.097656 912.816406 359.589844 913.457031 360.117188 C 914.097656 360.644531 914.714844 361.203125 915.300781 361.789062 C 915.886719 362.375 916.445312 362.988281 916.972656 363.632812 C 917.5 364.273438 917.992188 364.9375 918.453125 365.628906 C 918.914062 366.320312 919.34375 367.03125 919.734375 367.761719 C 920.125 368.492188 920.480469 369.242188 920.796875 370.011719 C 921.113281 370.777344 921.394531 371.558594 921.636719 372.351562 C 921.875 373.144531 922.078125 373.949219 922.238281 374.765625 C 922.402344 375.578125 922.523438 376.398438 922.605469 377.226562 C 922.6875 378.050781 922.726562 378.878906 922.726562 379.710938 Z M 922.726562 379.710938 " fill-opacity="1" fill-rule="nonzero"/><path fill="#bd4ab5" d="M 968.0625 407.753906 C 968.0625 408.496094 968.027344 409.238281 967.953125 409.976562 C 967.882812 410.714844 967.773438 411.445312 967.628906 412.175781 C 967.484375 412.902344 967.300781 413.621094 967.085938 414.332031 C 966.871094 415.042969 966.621094 415.738281 966.335938 416.425781 C 966.054688 417.109375 965.738281 417.78125 965.386719 418.433594 C 965.035156 419.089844 964.65625 419.726562 964.242188 420.34375 C 963.832031 420.960938 963.386719 421.554688 962.917969 422.128906 C 962.445312 422.703125 961.949219 423.25 961.421875 423.777344 C 960.898438 424.300781 960.347656 424.800781 959.777344 425.269531 C 959.203125 425.742188 958.605469 426.183594 957.988281 426.59375 C 957.371094 427.007812 956.734375 427.386719 956.082031 427.738281 C 955.425781 428.085938 954.753906 428.40625 954.070312 428.6875 C 953.382812 428.972656 952.6875 429.222656 951.976562 429.4375 C 951.265625 429.652344 950.546875 429.832031 949.816406 429.976562 C 949.089844 430.121094 948.355469 430.230469 947.617188 430.304688 C 946.878906 430.375 946.136719 430.414062 945.394531 430.414062 C 944.652344 430.414062 943.914062 430.375 943.171875 430.304688 C 942.433594 430.230469 941.699219 430.121094 940.972656 429.976562 C 940.246094 429.832031 939.527344 429.652344 938.816406 429.4375 C 938.105469 429.222656 937.40625 428.972656 936.71875 428.6875 C 936.035156 428.40625 935.363281 428.085938 934.710938 427.738281 C 934.054688 427.386719 933.417969 427.007812 932.800781 426.59375 C 932.183594 426.183594 931.589844 425.742188 931.015625 425.269531 C 930.441406 424.800781 929.890625 424.300781 929.367188 423.777344 C 928.839844 423.25 928.34375 422.703125 927.871094 422.128906 C 927.402344 421.554688 926.960938 420.960938 926.546875 420.34375 C 926.136719 419.726562 925.753906 419.089844 925.402344 418.433594 C 925.054688 417.78125 924.738281 417.109375 924.453125 416.425781 C 924.167969 415.738281 923.917969 415.042969 923.703125 414.332031 C 923.488281 413.621094 923.308594 412.902344 923.164062 412.175781 C 923.019531 411.445312 922.910156 410.714844 922.835938 409.976562 C 922.761719 409.238281 922.726562 408.496094 922.726562 407.753906 C 922.726562 407.011719 922.761719 406.273438 922.835938 405.53125 C 922.910156 404.792969 923.019531 404.0625 923.164062 403.332031 C 923.308594 402.605469 923.488281 401.886719 923.703125 401.175781 C 923.917969 400.464844 924.167969 399.769531 924.453125 399.082031 C 924.738281 398.398438 925.054688 397.726562 925.402344 397.074219 C 925.753906 396.417969 926.136719 395.78125 926.546875 395.164062 C 926.960938 394.546875 927.402344 393.953125 927.871094 393.378906 C 928.34375 392.804688 928.839844 392.257812 929.367188 391.730469 C 929.890625 391.207031 930.441406 390.710938 931.015625 390.238281 C 931.589844 389.769531 932.183594 389.328125 932.800781 388.914062 C 933.417969 388.5 934.054688 388.121094 934.710938 387.769531 C 935.363281 387.421875 936.035156 387.105469 936.71875 386.820312 C 937.40625 386.535156 938.105469 386.285156 938.816406 386.070312 C 939.527344 385.855469 940.246094 385.675781 940.972656 385.53125 C 941.699219 385.386719 942.433594 385.277344 943.171875 385.203125 C 943.914062 385.132812 944.652344 385.09375 945.394531 385.09375 C 946.136719 385.09375 946.878906 385.132812 947.617188 385.203125 C 948.355469 385.277344 949.089844 385.386719 949.816406 385.53125 C 950.546875 385.675781 951.265625 385.855469 951.976562 386.070312 C 952.6875 386.285156 953.382812 386.535156 954.070312 386.820312 C 954.753906 387.105469 955.425781 387.421875 956.082031 387.769531 C 956.734375 388.121094 957.371094 388.5 957.988281 388.914062 C 958.605469 389.328125 959.203125 389.769531 959.777344 390.238281 C 960.347656 390.710938 960.898438 391.207031 961.421875 391.730469 C 961.949219 392.257812 962.445312 392.804688 962.917969 393.378906 C 963.386719 393.953125 963.832031 394.546875 964.242188 395.164062 C 964.65625 395.78125 965.035156 396.417969 965.386719 397.074219 C 965.738281 397.726562 966.054688 398.398438 966.335938 399.082031 C 966.621094 399.769531 966.871094 400.464844 967.085938 401.175781 C 967.300781 401.886719 967.484375 402.605469 967.628906 403.332031 C 967.773438 404.0625 967.882812 404.792969 967.953125 405.53125 C 968.027344 406.273438 968.0625 407.011719 968.0625 407.753906 Z M 968.0625 407.753906 " fill-opacity="1" fill-rule="nonzero"/><path fill="#bd4ab5" d="M 1002.84375 444.9375 C 1002.84375 445.636719 1002.808594 446.335938 1002.738281 447.035156 C 1002.671875 447.730469 1002.566406 448.421875 1002.429688 449.109375 C 1002.292969 449.796875 1002.125 450.476562 1001.921875 451.144531 C 1001.71875 451.816406 1001.480469 452.476562 1001.214844 453.121094 C 1000.945312 453.769531 1000.648438 454.402344 1000.316406 455.019531 C 999.984375 455.636719 999.625 456.238281 999.238281 456.820312 C 998.847656 457.402344 998.429688 457.964844 997.984375 458.507812 C 997.542969 459.046875 997.070312 459.566406 996.574219 460.0625 C 996.082031 460.554688 995.5625 461.027344 995.019531 461.46875 C 994.480469 461.914062 993.917969 462.332031 993.332031 462.722656 C 992.75 463.109375 992.152344 463.46875 991.53125 463.800781 C 990.914062 464.128906 990.28125 464.429688 989.632812 464.695312 C 988.988281 464.964844 988.328125 465.199219 987.65625 465.402344 C 986.988281 465.609375 986.308594 465.777344 985.621094 465.914062 C 984.933594 466.050781 984.242188 466.152344 983.542969 466.222656 C 982.847656 466.289062 982.148438 466.324219 981.445312 466.324219 C 980.746094 466.324219 980.046875 466.289062 979.351562 466.222656 C 978.652344 466.152344 977.960938 466.050781 977.273438 465.914062 C 976.585938 465.777344 975.90625 465.609375 975.234375 465.402344 C 974.566406 465.199219 973.90625 464.964844 973.257812 464.695312 C 972.613281 464.429688 971.980469 464.128906 971.359375 463.800781 C 970.742188 463.46875 970.144531 463.109375 969.558594 462.722656 C 968.976562 462.332031 968.414062 461.914062 967.875 461.46875 C 967.332031 461.027344 966.8125 460.554688 966.316406 460.0625 C 965.824219 459.566406 965.351562 459.046875 964.90625 458.507812 C 964.464844 457.964844 964.046875 457.402344 963.65625 456.820312 C 963.269531 456.238281 962.90625 455.636719 962.578125 455.019531 C 962.246094 454.402344 961.949219 453.769531 961.679688 453.121094 C 961.410156 452.476562 961.175781 451.816406 960.972656 451.144531 C 960.769531 450.476562 960.597656 449.796875 960.460938 449.109375 C 960.324219 448.421875 960.222656 447.730469 960.15625 447.035156 C 960.085938 446.335938 960.050781 445.636719 960.050781 444.9375 C 960.050781 444.238281 960.085938 443.539062 960.15625 442.84375 C 960.222656 442.144531 960.324219 441.453125 960.460938 440.765625 C 960.597656 440.078125 960.769531 439.398438 960.972656 438.730469 C 961.175781 438.058594 961.410156 437.402344 961.679688 436.753906 C 961.949219 436.105469 962.246094 435.472656 962.578125 434.855469 C 962.90625 434.238281 963.269531 433.636719 963.65625 433.054688 C 964.046875 432.472656 964.464844 431.910156 964.90625 431.371094 C 965.351562 430.828125 965.824219 430.308594 966.316406 429.816406 C 966.8125 429.320312 967.332031 428.851562 967.875 428.40625 C 968.414062 427.960938 968.976562 427.542969 969.558594 427.15625 C 970.144531 426.765625 970.742188 426.40625 971.359375 426.078125 C 971.980469 425.746094 972.613281 425.445312 973.257812 425.179688 C 973.90625 424.910156 974.566406 424.675781 975.234375 424.472656 C 975.90625 424.269531 976.585938 424.097656 977.273438 423.960938 C 977.960938 423.824219 978.652344 423.722656 979.351562 423.652344 C 980.046875 423.585938 980.746094 423.550781 981.445312 423.550781 C 982.148438 423.550781 982.847656 423.585938 983.542969 423.652344 C 984.242188 423.722656 984.933594 423.824219 985.621094 423.960938 C 986.308594 424.097656 986.988281 424.269531 987.65625 424.472656 C 988.328125 424.675781 988.988281 424.910156 989.632812 425.179688 C 990.28125 425.445312 990.914062 425.746094 991.53125 426.078125 C 992.152344 426.40625 992.75 426.765625 993.332031 427.15625 C 993.917969 427.542969 994.480469 427.960938 995.019531 428.40625 C 995.5625 428.851562 996.082031 429.320312 996.574219 429.816406 C 997.070312 430.308594 997.542969 430.828125 997.984375 431.371094 C 998.429688 431.910156 998.847656 432.472656 999.238281 433.054688 C 999.625 433.636719 999.984375 434.238281 1000.316406 434.855469 C 1000.648438 435.472656 1000.945312 436.105469 1001.214844 436.753906 C 1001.480469 437.402344 1001.71875 438.058594 1001.921875 438.730469 C 1002.125 439.398438 1002.292969 440.078125 1002.429688 440.765625 C 1002.566406 441.453125 1002.671875 442.144531 1002.738281 442.84375 C 1002.808594 443.539062 1002.84375 444.238281 1002.84375 444.9375 Z M 1002.84375 444.9375 " fill-opacity="1" fill-rule="nonzero"/><g clip-path="url(#d7f673f58a)"><path fill="#bd4ab5" d="M 1017.199219 490.304688 C 1017.199219 490.886719 1017.171875 491.472656 1017.113281 492.054688 C 1017.058594 492.636719 1016.972656 493.214844 1016.855469 493.789062 C 1016.742188 494.363281 1016.601562 494.929688 1016.429688 495.492188 C 1016.261719 496.050781 1016.0625 496.601562 1015.839844 497.140625 C 1015.617188 497.683594 1015.367188 498.210938 1015.089844 498.726562 C 1014.8125 499.242188 1014.511719 499.746094 1014.1875 500.230469 C 1013.863281 500.71875 1013.515625 501.1875 1013.144531 501.640625 C 1012.769531 502.09375 1012.378906 502.523438 1011.964844 502.9375 C 1011.550781 503.351562 1011.117188 503.746094 1010.664062 504.117188 C 1010.210938 504.488281 1009.742188 504.835938 1009.253906 505.160156 C 1008.769531 505.488281 1008.265625 505.785156 1007.75 506.0625 C 1007.234375 506.339844 1006.707031 506.589844 1006.164062 506.8125 C 1005.625 507.035156 1005.074219 507.234375 1004.511719 507.402344 C 1003.953125 507.574219 1003.386719 507.714844 1002.8125 507.828125 C 1002.238281 507.945312 1001.660156 508.03125 1001.074219 508.085938 C 1000.492188 508.144531 999.910156 508.171875 999.324219 508.171875 C 998.738281 508.171875 998.152344 508.144531 997.570312 508.085938 C 996.988281 508.03125 996.410156 507.945312 995.835938 507.828125 C 995.261719 507.714844 994.695312 507.574219 994.132812 507.402344 C 993.574219 507.234375 993.023438 507.035156 992.484375 506.8125 C 991.941406 506.589844 991.414062 506.339844 990.898438 506.0625 C 990.378906 505.785156 989.878906 505.488281 989.390625 505.160156 C 988.90625 504.835938 988.433594 504.488281 987.984375 504.117188 C 987.53125 503.746094 987.097656 503.351562 986.683594 502.9375 C 986.269531 502.523438 985.875 502.09375 985.503906 501.640625 C 985.132812 501.1875 984.785156 500.71875 984.460938 500.230469 C 984.132812 499.746094 983.832031 499.242188 983.558594 498.726562 C 983.28125 498.210938 983.03125 497.683594 982.808594 497.140625 C 982.582031 496.601562 982.386719 496.050781 982.21875 495.492188 C 982.046875 494.929688 981.90625 494.363281 981.789062 493.789062 C 981.675781 493.214844 981.589844 492.636719 981.53125 492.054688 C 981.476562 491.472656 981.445312 490.886719 981.445312 490.304688 C 981.445312 489.71875 981.476562 489.132812 981.53125 488.550781 C 981.589844 487.96875 981.675781 487.390625 981.789062 486.816406 C 981.90625 486.242188 982.046875 485.675781 982.21875 485.117188 C 982.386719 484.554688 982.582031 484.003906 982.808594 483.464844 C 983.03125 482.925781 983.28125 482.394531 983.558594 481.878906 C 983.832031 481.363281 984.132812 480.863281 984.460938 480.375 C 984.785156 479.890625 985.132812 479.417969 985.503906 478.96875 C 985.875 478.515625 986.269531 478.082031 986.683594 477.667969 C 987.097656 477.253906 987.53125 476.859375 987.984375 476.488281 C 988.433594 476.117188 988.90625 475.769531 989.390625 475.445312 C 989.878906 475.121094 990.378906 474.820312 990.898438 474.542969 C 991.414062 474.269531 991.941406 474.019531 992.484375 473.792969 C 993.023438 473.570312 993.574219 473.371094 994.132812 473.203125 C 994.695312 473.03125 995.261719 472.890625 995.835938 472.777344 C 996.410156 472.664062 996.988281 472.578125 997.570312 472.519531 C 998.152344 472.460938 998.738281 472.433594 999.324219 472.433594 C 999.910156 472.433594 1000.492188 472.460938 1001.074219 472.519531 C 1001.660156 472.578125 1002.238281 472.664062 1002.8125 472.777344 C 1003.386719 472.890625 1003.953125 473.03125 1004.511719 473.203125 C 1005.074219 473.371094 1005.625 473.570312 1006.164062 473.792969 C 1006.707031 474.019531 1007.234375 474.269531 1007.75 474.542969 C 1008.265625 474.820312 1008.769531 475.121094 1009.253906 475.445312 C 1009.742188 475.769531 1010.210938 476.117188 1010.664062 476.488281 C 1011.117188 476.859375 1011.550781 477.253906 1011.964844 477.667969 C 1012.378906 478.082031 1012.769531 478.515625 1013.144531 478.96875 C 1013.515625 479.417969 1013.863281 479.890625 1014.1875 480.375 C 1014.511719 480.863281 1014.8125 481.363281 1015.089844 481.878906 C 1015.367188 482.394531 1015.617188 482.925781 1015.839844 483.464844 C 1016.0625 484.003906 1016.261719 484.554688 1016.429688 485.117188 C 1016.601562 485.675781 1016.742188 486.242188 1016.855469 486.816406 C 1016.972656 487.390625 1017.058594 487.96875 1017.113281 488.550781 C 1017.171875 489.132812 1017.199219 489.71875 1017.199219 490.304688 Z M 1017.199219 490.304688 " fill-opacity="1" fill-rule="nonzero"/></g></svg>