<svg xmlns="http://www.w3.org/2000/svg" xmlns:xlink="http://www.w3.org/1999/xlink" width="2000" zoomAndPan="magnify" viewBox="0 0 1500 1499.999933" height="2000" preserveAspectRatio="xMidYMid meet" version="1.0"><defs><clipPath id="658912da76"><path d="M 523.152344 341.058594 L 589.902344 341.058594 L 589.902344 407.808594 L 523.152344 407.808594 Z M 523.152344 341.058594 " clip-rule="nonzero"/></clipPath><clipPath id="3b444390b1"><path d="M 918.617188 537.929688 L 985.367188 537.929688 L 985.367188 604.679688 L 918.617188 604.679688 Z M 918.617188 537.929688 " clip-rule="nonzero"/></clipPath></defs><path fill="#cb6ce6" d="M 961.4375 310.160156 C 1010.527344 342.242188 1040.292969 403.703125 1054.207031 464.003906 C 1068.125 523.921875 1066.191406 582.675781 1056.914062 639.496094 C 1048.023438 696.707031 1032.175781 751.984375 1000.089844 799.914062 C 968.007812 847.847656 920.464844 888.433594 864.027344 909.695312 C 807.203125 931.339844 742.265625 933.660156 686.601562 913.171875 C 631.328125 892.300781 585.328125 848.621094 543.195312 800.6875 C 501.058594 753.140625 462.40625 701.730469 447.332031 642.589844 C 431.867188 583.449219 439.597656 516.574219 466.65625 458.980469 C 493.714844 401.386719 540.101562 353.066406 594.992188 323.6875 C 649.492188 294.3125 712.886719 283.875 778.601562 280.007812 C 844.3125 275.757812 912.347656 278.464844 961.4375 310.160156 Z M 961.4375 310.160156 " fill-opacity="1" fill-rule="nonzero"/><path fill="#e1b79b" d="M 844.519531 929.042969 C 838.363281 928.75 821.011719 928.054688 805.957031 927.496094 C 790.902344 926.941406 778.4375 926.339844 778.257812 926.160156 C 778.078125 925.980469 778.300781 924.71875 778.75 923.359375 C 779.765625 920.277344 779.1875 915.21875 776.929688 907.441406 C 773.507812 895.65625 772.660156 890.75 772.011719 878.9375 C 771.03125 861.179688 768.800781 852.871094 761.820312 840.984375 C 759.957031 837.8125 758.425781 834.722656 758.417969 834.113281 C 758.390625 832.058594 773.289062 830.59375 808.515625 829.191406 L 831.84375 828.265625 L 834.070312 830.492188 C 835.773438 832.195312 837.390625 832.960938 840.917969 833.742188 C 848.898438 835.507812 852.046875 835.660156 858.125 834.589844 C 865.160156 833.34375 880.390625 828.675781 883.617188 826.769531 C 885.390625 825.722656 887.144531 825.390625 890.835938 825.390625 C 896.882812 825.394531 913.128906 826.917969 930.972656 829.160156 C 978.699219 835.15625 999.199219 840.59375 1018.105469 852.289062 C 1020.789062 853.945312 1021.265625 854.113281 1019.800781 852.882812 C 1016.578125 850.171875 1002.808594 843.355469 995.390625 840.796875 C 986.878906 837.859375 973.890625 834.738281 961.085938 832.554688 C 942.238281 829.335938 903.042969 824.71875 894.527344 824.710938 C 892.648438 824.710938 891.304688 824.402344 891.304688 823.96875 C 891.304688 823.558594 893.585938 821.097656 896.371094 818.496094 C 902.257812 812.996094 905.695312 807.699219 908.351562 800.027344 C 909.394531 797.015625 910.570312 794.441406 910.964844 794.3125 C 912.671875 793.742188 949.371094 802.902344 968.945312 808.78125 C 998.824219 817.753906 1022.332031 827.914062 1037.640625 838.46875 C 1059.21875 853.347656 1069.378906 872.507812 1062.882812 886.074219 C 1060.867188 890.289062 1052.359375 898.835938 1047.140625 901.894531 C 1038.28125 907.089844 1026.476562 911.113281 1017.597656 911.96875 C 1013.746094 912.339844 1013.359375 912.261719 1013.359375 911.09375 C 1013.363281 910.238281 1014.855469 908.898438 1017.8125 907.097656 C 1020.257812 905.605469 1022.757812 903.839844 1023.363281 903.171875 C 1023.96875 902.503906 1022.347656 903.390625 1019.761719 905.136719 C 1006.273438 914.25 988.980469 919.296875 954.027344 924.324219 C 933.890625 927.21875 912.105469 929.132812 899.285156 929.132812 C 895.300781 929.132812 894.695312 928.972656 894.695312 927.902344 C 894.695312 926.921875 896.050781 926.289062 901.308594 924.808594 C 904.945312 923.785156 916.15625 919.648438 926.226562 915.609375 C 949.921875 906.105469 965.371094 901.277344 977.25 899.65625 C 979.210938 899.390625 980.8125 898.875 980.8125 898.511719 C 980.8125 898.148438 980.277344 898.003906 979.625 898.1875 C 978.972656 898.375 976.609375 898.878906 974.371094 899.308594 C 960.339844 902.007812 948.578125 905.785156 926.90625 914.550781 C 891.378906 928.917969 880.789062 930.78125 844.519531 929.042969 Z M 1034.394531 890.300781 C 1039.1875 879.160156 1034.972656 864.449219 1024.710938 856.488281 C 1022.617188 854.863281 1022.984375 855.378906 1026.074219 858.398438 C 1032.304688 864.476562 1034.601562 869.722656 1034.941406 878.621094 C 1035.230469 886.234375 1034.519531 889.757812 1031.921875 893.609375 C 1030.554688 895.632812 1030.460938 895.957031 1031.519531 895.011719 C 1032.277344 894.332031 1033.570312 892.214844 1034.394531 890.300781 Z M 842.054688 833.191406 C 836.652344 832.015625 833.667969 830.453125 833.667969 828.796875 C 833.667969 827.421875 835.839844 826.585938 845.195312 824.351562 C 847.621094 823.773438 851.742188 822.242188 854.355469 820.953125 C 856.972656 819.664062 859.71875 818.605469 860.460938 818.601562 C 862.476562 818.589844 868.042969 815.117188 872.871094 810.859375 C 875.226562 808.78125 876.964844 807.082031 876.734375 807.082031 C 876.503906 807.082031 874.199219 808.902344 871.613281 811.128906 C 866.492188 815.535156 863.65625 817.25 861.503906 817.25 C 858.515625 817.25 860.625 812.710938 870.378906 798.128906 C 877.023438 788.1875 877.113281 788.09375 879.621094 788.097656 C 882.84375 788.097656 886.164062 790.117188 887.664062 792.980469 C 889.398438 796.296875 889.742188 805.414062 888.289062 809.570312 C 887.660156 811.371094 886.898438 815.417969 886.597656 818.566406 C 886.144531 823.269531 885.777344 824.507812 884.542969 825.507812 C 882.878906 826.859375 867.949219 831.726562 860.902344 833.222656 C 855.332031 834.402344 847.566406 834.390625 842.054688 833.191406 Z M 820.488281 680.492188 C 820.078125 674.867188 819.492188 672.527344 816.640625 665.035156 C 810.65625 649.324219 811.363281 650.359375 805.015625 648.058594 L 800.78125 646.523438 L 800.722656 642.890625 C 800.691406 640.890625 800.289062 638.339844 799.832031 637.222656 C 798.835938 634.78125 795.792969 631.457031 794.554688 631.457031 C 792.648438 631.457031 793.871094 628.765625 799.023438 621.609375 C 808.285156 608.75 811.292969 606.933594 811.292969 614.199219 C 811.292969 617.066406 810.6875 619.410156 808.828125 623.734375 C 807.476562 626.890625 806.53125 629.636719 806.734375 629.835938 C 806.933594 630.039062 807.300781 629.570312 807.546875 628.796875 C 807.957031 627.511719 808.515625 627.390625 814.003906 627.390625 C 818.242188 627.390625 820.289062 627.667969 820.957031 628.335938 C 821.480469 628.859375 824.289062 635.648438 827.207031 643.425781 C 834.992188 664.199219 834.941406 667.871094 826.695312 681.042969 C 821.792969 688.875 821.101562 688.8125 820.488281 680.492188 Z M 634.992188 625.050781 C 634.992188 624.511719 635.585938 620.925781 636.3125 617.085938 C 639.378906 600.847656 640.621094 588.925781 642.128906 561.277344 C 644.234375 522.597656 647.308594 507.347656 655.460938 495.140625 C 665.746094 479.738281 684.742188 476.542969 698.8125 487.851562 C 705.183594 492.972656 711.316406 503.457031 714.175781 514.105469 C 715.730469 519.902344 715.917969 521.855469 715.917969 532.460938 C 715.914062 549.269531 714.734375 554.71875 701.398438 599.484375 C 697.695312 611.921875 694.664062 622.675781 694.664062 623.386719 C 694.664062 625.125 692.308594 625.078125 688.109375 623.253906 C 685.257812 622.015625 684.039062 621.886719 678.730469 622.265625 C 675.371094 622.507812 665.914062 622.964844 657.710938 623.289062 C 647.308594 623.699219 641.785156 624.203125 639.460938 624.953125 C 635.375 626.28125 634.992188 626.289062 634.992188 625.050781 Z M 779.761719 545.03125 C 764.195312 540.761719 753.433594 531.433594 737.476562 508.386719 C 729.371094 496.683594 722.242188 488.203125 716.421875 483.347656 C 711.152344 478.953125 700.53125 471.878906 697.992188 471.074219 C 697.28125 470.847656 696.699219 470.074219 696.699219 469.351562 C 696.699219 468.136719 697.238281 468.042969 704.34375 468.042969 C 717.722656 468.042969 732.070312 465.648438 741.121094 461.910156 C 745.464844 460.113281 747.375 458.820312 750.769531 455.378906 C 753.097656 453.019531 755.273438 451.089844 755.605469 451.089844 C 755.941406 451.089844 756.703125 451.839844 757.300781 452.753906 C 758.785156 455.015625 761.742188 457.753906 763.996094 458.949219 C 766.671875 460.371094 766.308594 462.089844 762.71875 465.03125 C 758.691406 468.332031 755.949219 472.679688 754.992188 477.289062 C 753.542969 484.28125 756.371094 488.578125 765.074219 492.597656 C 768.195312 494.039062 771.800781 496.046875 773.089844 497.058594 C 777.511719 500.527344 781.808594 508.078125 787.246094 521.949219 C 788.273438 524.558594 790.167969 528.8125 791.460938 531.402344 C 793.398438 535.285156 793.75 536.632812 793.472656 539.109375 C 793.285156 540.757812 792.535156 542.914062 791.804688 543.894531 C 790.683594 545.398438 789.894531 545.703125 786.8125 545.820312 C 784.800781 545.898438 781.628906 545.542969 779.761719 545.03125 Z M 790.613281 469.792969 C 785.941406 468.289062 766.449219 459.867188 763.863281 458.234375 C 759.804688 455.671875 757.046875 452.070312 757.046875 449.332031 C 757.046875 445.179688 760.0625 440.046875 765.453125 435.023438 C 769.371094 431.375 772.664062 429.226562 781.1875 424.742188 C 795.4375 417.253906 802.246094 412.660156 808.90625 406.042969 C 816.28125 398.71875 820.675781 391.847656 829.152344 374.40625 C 836.941406 358.386719 837.710938 357.390625 844.980469 353.976562 C 848.035156 352.542969 849.960938 352.066406 852.097656 352.21875 L 855.027344 352.429688 L 856.261719 360.230469 C 857.996094 371.203125 858.128906 384.265625 856.535156 387.1875 C 855.871094 388.398438 851.683594 393.230469 847.226562 397.921875 C 841.324219 404.132812 838.527344 407.664062 836.929688 410.90625 C 834.03125 416.792969 833.640625 422.082031 835.628906 428.613281 C 836.414062 431.210938 837.058594 433.835938 837.058594 434.449219 C 837.058594 435.921875 833.457031 437.371094 827.824219 438.171875 C 823.953125 438.71875 822.921875 439.175781 820.753906 441.292969 C 819.355469 442.65625 817.371094 445.339844 816.335938 447.261719 C 813.339844 452.839844 802.511719 468.621094 800.917969 469.734375 C 799.164062 470.964844 794.335938 470.992188 790.613281 469.792969 Z M 790.613281 469.792969 " fill-opacity="1" fill-rule="nonzero"/><path fill="#997662" d="M 747.554688 929.863281 C 745.503906 929.578125 740.566406 928.378906 736.585938 927.195312 C 725.28125 923.835938 721.039062 923.523438 707.738281 925.074219 C 685.617188 927.652344 674.648438 926.5 652.625 919.292969 C 647.589844 917.644531 639.492188 915.363281 634.628906 914.21875 C 624.953125 911.941406 621.800781 910.449219 620.652344 907.605469 C 617.476562 899.746094 615.976562 897.519531 611.3125 893.714844 C 608.453125 891.378906 606.367188 889.117188 606.101562 888.058594 C 605.285156 884.8125 606.992188 881.394531 612.308594 875.621094 C 615.125 872.5625 617.679688 869.394531 617.984375 868.574219 C 618.289062 867.757812 618.765625 862.96875 619.039062 857.9375 C 619.328125 852.660156 619.917969 848.0625 620.429688 847.085938 C 620.917969 846.15625 622.601562 844.171875 624.167969 842.679688 C 628.230469 838.808594 629.085938 836.417969 628.535156 830.515625 C 628.183594 826.785156 628.332031 825.058594 629.171875 823.050781 C 629.773438 821.609375 630.148438 820.316406 630 820.171875 C 629.328125 819.496094 627.535156 825.78125 627.535156 828.8125 C 627.535156 831.257812 626.945312 833.390625 625.425781 836.425781 C 622.730469 841.8125 621.636719 843.019531 619.460938 843.007812 C 617.0625 842.992188 616.546875 842.5625 613.800781 838.273438 C 610.714844 833.457031 608.894531 831.8125 603.300781 828.789062 C 596.316406 825.011719 595.691406 822.671875 599.125 813.183594 C 602.429688 804.050781 603.800781 798.875 603.800781 795.523438 C 603.800781 792.972656 604.15625 792.074219 605.792969 790.507812 C 606.886719 789.460938 609.203125 785.664062 610.9375 782.074219 C 612.675781 778.488281 615.210938 774.328125 616.578125 772.839844 L 619.058594 770.125 L 616.453125 772.5 C 614.835938 773.972656 612.558594 777.445312 610.449219 781.652344 C 606.898438 788.746094 604.695312 791.640625 601.632812 793.238281 C 599.238281 794.492188 598.046875 794.449219 596.660156 793.0625 C 595.703125 792.101562 595.597656 791.070312 595.980469 786.449219 C 596.292969 782.707031 596.101562 778.886719 595.371094 774.371094 C 592.167969 754.472656 596.109375 743.84375 613.632812 725.128906 C 619.773438 718.570312 620.179688 717.964844 619.742188 715.976562 C 618.5 710.277344 618.613281 705.703125 620.097656 701.738281 L 621.574219 697.785156 L 624.046875 698.175781 C 625.792969 698.453125 626.121094 698.390625 625.160156 697.964844 C 624.414062 697.632812 622.585938 696.101562 621.09375 694.554688 L 618.378906 691.746094 L 618.152344 684.316406 C 617.996094 679.308594 618.160156 676.890625 618.652344 676.890625 C 619.058594 676.890625 620.398438 674.832031 621.632812 672.3125 C 624.027344 667.425781 625.179688 666.671875 631.765625 665.683594 C 633.375 665.441406 635.4375 664.320312 637.421875 662.601562 C 639.136719 661.117188 641.734375 659.292969 643.191406 658.550781 C 644.648438 657.804688 645.84375 657.046875 645.84375 656.859375 C 645.84375 656.101562 640.339844 659.398438 637.484375 661.871094 C 635.046875 663.980469 633.6875 664.605469 630.769531 664.972656 C 625.484375 665.632812 623.308594 667.222656 621.070312 672.074219 C 620.019531 674.351562 618.792969 676.210938 618.34375 676.210938 C 615.667969 676.210938 614.785156 670.601562 616.347656 663.546875 C 617.859375 656.726562 619.183594 654.222656 623.375 650.300781 C 625.957031 647.878906 626.878906 646.480469 627.175781 644.535156 C 628.660156 634.808594 632.949219 627.441406 637.902344 626.101562 C 644.023438 624.449219 648.457031 624 658.648438 624 C 664.472656 624 672.441406 623.660156 676.355469 623.242188 C 683.039062 622.53125 683.726562 622.574219 687.542969 623.96875 C 689.78125 624.785156 693.050781 625.898438 694.8125 626.441406 C 697.734375 627.34375 698.078125 627.679688 698.773438 630.292969 C 699.1875 631.867188 700.136719 634.984375 700.878906 637.222656 C 702.84375 643.148438 703.074219 645.460938 702.109375 649.488281 C 701.324219 652.757812 701.363281 653.257812 702.53125 654.902344 C 705.683594 659.347656 706.183594 660.425781 706.1875 662.78125 C 706.191406 664.160156 705.550781 666.367188 704.769531 667.695312 C 703.410156 670 703.394531 670.238281 704.429688 673.277344 C 705.027344 675.023438 705.511719 677.140625 705.511719 677.980469 C 705.511719 680.132812 702.460938 682.316406 699.441406 682.316406 C 697.210938 682.316406 696.511719 681.832031 693.015625 677.875 C 689.457031 673.84375 688.167969 672.972656 678.984375 668.371094 C 667.921875 662.832031 662.898438 661.3125 655.675781 661.320312 C 649.972656 661.324219 646.554688 662.695312 642.167969 666.742188 C 639.945312 668.789062 637.714844 670.015625 634.160156 671.144531 C 631.449219 672.007812 629.703125 672.734375 630.285156 672.765625 C 633.132812 672.914062 639.894531 669.828125 642.863281 667.023438 C 646.902344 663.210938 649.605469 662.300781 656.691406 662.367188 C 664.160156 662.4375 668.347656 663.71875 679.761719 669.4375 C 688.109375 673.621094 689.445312 674.542969 692.964844 678.550781 C 695.121094 681.003906 697.574219 683.1875 698.421875 683.398438 C 700.199219 683.847656 702.367188 682.867188 704.964844 680.449219 C 706.132812 679.359375 707.203125 678.90625 707.9375 679.191406 C 709.601562 679.828125 708.910156 685.988281 706.359375 693.210938 C 703.375 701.664062 703.300781 701.972656 705.179688 698.011719 C 707.601562 692.910156 709.582031 685.34375 709.582031 681.183594 L 709.582031 677.652344 L 712.65625 677.191406 C 716.628906 676.59375 719.597656 677.214844 721.753906 679.09375 C 722.703125 679.921875 723.101562 680.160156 722.632812 679.625 C 721.128906 677.898438 721.660156 675.714844 723.992188 674.054688 C 725.730469 672.8125 727.085938 672.484375 730.433594 672.484375 C 733.980469 672.484375 734.671875 672.292969 734.671875 671.324219 C 734.671875 668.46875 741.265625 664.722656 746.332031 664.699219 C 751.273438 664.675781 756.210938 663.375 758.421875 661.515625 C 759.527344 660.582031 761.804688 657.164062 763.484375 653.917969 C 770.929688 639.5 782.421875 630.550781 792.09375 631.640625 C 797.203125 632.214844 799.765625 635.882812 799.765625 642.609375 C 799.765625 646.816406 800.574219 647.710938 805.550781 649.019531 C 807.054688 649.414062 808.800781 650.125 809.433594 650.601562 C 810.066406 651.074219 812.445312 656.191406 814.71875 661.972656 C 818.800781 672.339844 818.867188 672.617188 819.605469 682.347656 C 820.019531 687.773438 820.164062 692.71875 819.925781 693.339844 C 819.351562 694.832031 811.722656 698.601562 804.511719 700.960938 C 786.609375 706.816406 777.363281 715.765625 761.09375 743.003906 C 753.597656 755.550781 746.332031 759.914062 736.675781 757.667969 C 733.371094 756.898438 732.359375 757.40625 726.40625 762.816406 C 721.421875 767.339844 720.941406 767.601562 714.550781 769.308594 C 710.886719 770.285156 705.804688 771.414062 703.261719 771.8125 C 700.71875 772.210938 697.058594 773.140625 695.125 773.875 C 690.832031 775.507812 690.59375 775.515625 690.59375 774.019531 C 690.59375 773.363281 693.480469 769.964844 697.003906 766.464844 C 706.546875 756.988281 710.171875 749.117188 711.605469 734.722656 C 712.90625 721.714844 713.65625 715.636719 714.113281 714.449219 C 714.394531 713.710938 714.292969 713.449219 713.835938 713.730469 C 712.855469 714.335938 711.800781 720.855469 710.945312 731.582031 C 709.472656 750.101562 706.96875 755.59375 694.265625 768.171875 C 683.644531 778.691406 681.167969 780.160156 673.371094 780.53125 C 666.917969 780.839844 664.703125 780.234375 657.699219 776.242188 C 654.738281 774.558594 651.441406 773.175781 650.367188 773.175781 C 649.296875 773.175781 644.714844 774.425781 640.179688 775.957031 C 631.078125 779.023438 625.25 779.917969 622.8125 778.613281 C 621.359375 777.835938 621.289062 777.5 621.703125 773.4375 C 622.230469 768.285156 621.5625 766.664062 618.347656 765.320312 C 615.835938 764.273438 609.199219 764.144531 606.515625 765.097656 C 605.355469 765.507812 606.316406 765.601562 609.566406 765.390625 C 617.417969 764.882812 621.894531 766.449219 620.222656 769.125 C 619.660156 770.027344 619.628906 770.464844 620.121094 770.464844 C 620.539062 770.464844 620.808594 771.558594 620.738281 773.007812 C 620.542969 777.308594 620.699219 777.855469 622.460938 779.011719 C 625.105469 780.742188 629.453125 780.269531 638.390625 777.269531 C 649.074219 773.6875 652.242188 773.636719 657.75 776.96875 C 664.011719 780.757812 666.710938 781.648438 671.964844 781.648438 C 676.8125 781.652344 678.054688 781.285156 691.742188 775.824219 C 694.421875 774.75 699.304688 773.40625 702.589844 772.835938 C 710.800781 771.40625 719.011719 769.171875 721.449219 767.707031 C 722.566406 767.035156 724.535156 765.398438 725.820312 764.066406 C 729.363281 760.402344 729.921875 760.789062 729.933594 766.90625 C 729.945312 771.363281 730.308594 773.03125 732.34375 777.921875 C 737.636719 790.65625 739.386719 795.535156 741.097656 802.285156 C 743.492188 811.71875 745.234375 815.8125 750.175781 823.589844 C 752.464844 827.191406 756.230469 833.109375 758.542969 836.746094 C 763.257812 844.148438 767.152344 852.6875 768.835938 859.292969 C 769.453125 861.714844 770.398438 870.109375 770.941406 877.9375 C 771.839844 890.898438 772.175781 893.0625 774.699219 902.011719 C 776.59375 908.738281 777.589844 913.804688 777.855469 918.058594 C 778.398438 926.695312 777.960938 927.105469 766.539062 928.644531 C 754.53125 930.265625 751.777344 930.441406 747.554688 929.863281 Z M 686.1875 917.855469 C 693.78125 915.5 694.914062 915.332031 703.140625 915.308594 C 710.277344 915.289062 713.050781 915.582031 717.71875 916.84375 C 730.292969 920.253906 736.601562 919.507812 749.433594 913.09375 C 761.960938 906.835938 763.300781 904.035156 758.480469 894.175781 C 754.214844 885.453125 743.503906 871.582031 735.410156 864.304688 C 731.539062 860.824219 731.308594 860.855469 726.871094 865.421875 C 723.964844 868.414062 717.195312 871.980469 710.597656 873.988281 C 707.300781 874.992188 704.351562 875.214844 695.003906 875.167969 C 683.664062 875.113281 678.726562 874.347656 669.238281 871.171875 C 668.085938 870.785156 668.050781 870.828125 668.996094 871.441406 C 671.078125 872.789062 682.613281 875.515625 689.402344 876.261719 C 704.054688 877.875 719.164062 873.664062 727.542969 865.636719 C 729.238281 864.011719 731.164062 862.683594 731.816406 862.683594 C 733.125 862.683594 740.402344 869.878906 746.433594 877.136719 C 754.324219 886.628906 759.359375 895.519531 760.164062 901.378906 C 760.527344 904.023438 760.34375 904.730469 758.851562 906.503906 C 757.050781 908.644531 745.746094 914.632812 739.757812 916.617188 C 734.625 918.316406 726.25 918.097656 717.378906 916.027344 C 703.667969 912.832031 700.472656 912.933594 686.867188 916.984375 C 679.25 919.253906 672.765625 920.351562 670.042969 919.832031 C 668.460938 919.527344 668.21875 919.15625 668.21875 917.015625 C 668.21875 915.65625 668.496094 913.582031 668.832031 912.40625 C 669.324219 910.699219 669.117188 909.5625 667.816406 906.75 C 665.714844 902.214844 665.742188 898.363281 667.933594 891.5 C 669.636719 886.175781 671.121094 877.402344 670.226562 877.957031 C 669.976562 878.109375 669.585938 880.03125 669.355469 882.222656 C 669.128906 884.417969 668.121094 888.773438 667.125 891.90625 C 664.921875 898.824219 664.832031 902.132812 666.753906 905.882812 C 668.4375 909.160156 668.554688 910.914062 667.382812 915.292969 C 666.582031 918.285156 666.617188 918.480469 668.230469 919.789062 C 670.546875 921.671875 675.660156 921.121094 686.1875 917.855469 Z M 703.816406 864.039062 C 710.339844 862.371094 716.289062 859.660156 720.457031 856.457031 C 722.148438 855.160156 724.132812 853.75 724.863281 853.324219 C 725.597656 852.898438 725.882812 852.542969 725.5 852.53125 C 725.117188 852.523438 723.136719 853.765625 721.097656 855.292969 C 712.835938 861.503906 705.132812 863.992188 692.527344 864.527344 C 680.960938 865.019531 666.863281 863.019531 666.863281 860.890625 C 666.863281 860.367188 667.921875 858.398438 669.214844 856.519531 C 673.476562 850.324219 673.316406 846.050781 668.332031 833.105469 C 663.789062 821.304688 663.210938 818.167969 663.167969 805.21875 C 663.152344 799.160156 662.90625 794.199219 662.625 794.199219 C 661.710938 794.195312 662.074219 813.527344 663.089844 818.824219 C 663.625 821.621094 665.433594 827.417969 667.113281 831.707031 C 672.671875 845.929688 672.730469 851.289062 667.394531 858.039062 C 665.910156 859.921875 664.953125 861.707031 665.269531 862.003906 C 665.972656 862.667969 674.398438 864.542969 680.425781 865.382812 C 686.777344 866.261719 697.539062 865.644531 703.816406 864.039062 Z M 632.910156 814.199219 C 632.910156 813.828125 632.476562 814.285156 631.941406 815.21875 C 631.410156 816.148438 630.972656 817.21875 630.972656 817.589844 C 630.972656 817.964844 631.410156 817.503906 631.941406 816.574219 C 632.476562 815.640625 632.910156 814.574219 632.910156 814.199219 Z M 634.972656 809.453125 C 634.972656 809.082031 634.675781 809.234375 634.316406 809.792969 C 633.953125 810.351562 633.660156 811.113281 633.660156 811.488281 C 633.660156 811.859375 633.953125 811.707031 634.316406 811.148438 C 634.675781 810.589844 634.972656 809.828125 634.972656 809.453125 Z M 661.097656 751.539062 C 675.503906 740.050781 687.878906 728.605469 691.226562 723.675781 C 693.164062 720.832031 692.226562 721.75 686.613281 728.222656 C 681.859375 733.699219 671.050781 743.117188 655.761719 755.105469 C 650.121094 759.527344 645.199219 763.464844 644.824219 763.851562 C 642.886719 765.875 647.542969 762.351562 661.097656 751.539062 Z M 624.5 741.4375 C 624.160156 741.097656 622.78125 746.105469 622.851562 747.410156 C 622.882812 747.96875 623.324219 746.910156 623.832031 745.058594 C 624.339844 743.207031 624.640625 741.578125 624.5 741.4375 Z M 626.15625 738.253906 C 626.15625 737.882812 625.863281 738.035156 625.5 738.59375 C 625.140625 739.152344 624.84375 739.917969 624.84375 740.289062 C 624.84375 740.664062 625.140625 740.511719 625.5 739.949219 C 625.863281 739.390625 626.15625 738.628906 626.15625 738.253906 Z M 628.890625 733.171875 C 629.289062 732.425781 629.464844 731.8125 629.277344 731.8125 C 629.089844 731.8125 628.613281 732.425781 628.214844 733.171875 C 627.8125 733.914062 627.640625 734.527344 627.824219 734.527344 C 628.011719 734.527344 628.492188 733.914062 628.890625 733.171875 Z M 633.339844 726.613281 C 634.386719 725.242188 634.894531 724.335938 634.46875 724.597656 C 633.601562 725.136719 630.667969 729.101562 631.136719 729.101562 C 631.304688 729.101562 632.296875 727.980469 633.339844 726.613281 Z M 646.859375 712.578125 C 647.605469 711.839844 646.691406 712.484375 644.824219 714.011719 C 642.960938 715.539062 639.910156 718.40625 638.046875 720.386719 C 635.667969 722.910156 636.277344 722.484375 640.078125 718.957031 C 643.0625 716.191406 646.113281 713.320312 646.859375 712.578125 Z M 699.722656 710.050781 C 701.789062 706.074219 703.472656 702.554688 703.464844 702.230469 C 703.457031 701.90625 701.675781 705.027344 699.511719 709.167969 C 697.347656 713.308594 694.890625 717.730469 694.046875 719 L 692.519531 721.304688 L 694.242188 719.292969 C 695.191406 718.1875 697.65625 714.027344 699.722656 710.050781 Z M 664.828125 700.59375 C 669.117188 697.898438 672.082031 695.882812 671.410156 696.113281 C 669.511719 696.769531 653.222656 707.277344 650.585938 709.546875 C 649.265625 710.683594 650.171875 710.234375 652.625 708.539062 C 655.046875 706.863281 660.539062 703.289062 664.828125 700.59375 Z M 729.191406 693.558594 C 728.015625 690.320312 726.945312 687.78125 726.808594 687.917969 C 726.667969 688.054688 727.511719 690.824219 728.679688 694.066406 C 729.851562 697.3125 730.921875 699.851562 731.0625 699.710938 C 731.207031 699.566406 730.363281 696.800781 729.191406 693.558594 Z M 637.027344 688.601562 C 637.027344 688.160156 627.636719 696.511719 627.054688 697.476562 C 626.796875 697.902344 628.933594 696.152344 631.804688 693.589844 C 634.679688 691.027344 637.027344 688.78125 637.027344 688.601562 Z M 745.15625 688.96875 C 743.296875 683.332031 741.046875 678.246094 740.40625 678.246094 C 740.21875 678.246094 740.652344 679.390625 741.363281 680.789062 C 742.078125 682.1875 743.496094 686.011719 744.515625 689.289062 C 745.539062 692.566406 746.519531 695.105469 746.695312 694.925781 C 746.871094 694.75 746.179688 692.070312 745.15625 688.96875 Z M 649.859375 684.378906 C 655.214844 683.574219 658.785156 682.207031 660.222656 680.414062 C 660.757812 679.742188 660.28125 679.890625 658.980469 680.800781 C 657.648438 681.734375 654.519531 682.691406 650.53125 683.378906 C 647.050781 683.976562 642.742188 685.210938 640.953125 686.117188 C 636.601562 688.320312 636.8125 688.746094 641.265625 686.738281 C 643.222656 685.859375 647.089844 684.796875 649.859375 684.378906 Z M 725.210938 683.734375 C 723.289062 679.964844 722.789062 680.191406 724.636719 683.996094 C 725.449219 685.664062 726.226562 686.914062 726.371094 686.773438 C 726.511719 686.628906 725.992188 685.265625 725.210938 683.734375 Z M 740.09375 677.363281 C 740.09375 677.25 738.949219 676.105469 737.550781 674.820312 L 735.007812 672.480469 L 737.347656 675.023438 C 739.519531 677.390625 740.09375 677.878906 740.09375 677.363281 Z M 659.089844 652.46875 C 662.804688 651.9375 665.683594 651.894531 668.128906 652.339844 C 670.320312 652.738281 671.46875 652.746094 671.082031 652.355469 C 669.96875 651.246094 663.136719 650.925781 658.308594 651.753906 C 654.085938 652.480469 646.519531 655.292969 646.519531 656.132812 C 646.519531 656.320312 648.121094 655.746094 650.082031 654.859375 C 652.039062 653.976562 656.09375 652.898438 659.089844 652.46875 Z M 887.238281 819.898438 C 887.238281 817.996094 888.058594 813.324219 889.058594 809.511719 C 890.875 802.613281 890.878906 802.558594 889.738281 797.945312 C 889.109375 795.394531 887.839844 792.316406 886.910156 791.101562 C 884.902344 788.46875 879.53125 786.136719 877.875 787.179688 C 876.175781 788.25 862.90625 808.269531 860.410156 813.523438 C 858.820312 816.871094 857.53125 818.617188 856.03125 819.457031 C 850.636719 822.460938 850.742188 820.261719 856.359375 812.441406 C 868.386719 795.691406 876.582031 778.234375 880.210938 761.648438 C 881.167969 757.289062 881.46875 753.160156 881.449219 744.699219 C 881.421875 731.804688 880.304688 726.03125 875.707031 715.03125 C 872.757812 707.976562 872.496094 706.726562 873.964844 706.726562 C 876.507812 706.726562 888.136719 719.582031 891.277344 725.867188 C 893.757812 730.828125 893.953125 734.847656 891.992188 740.429688 C 891.25 742.539062 890.765625 744.382812 890.910156 744.527344 C 891.199219 744.820312 894.019531 737.578125 894.019531 736.535156 C 894.019531 734.671875 896.207031 736.367188 898.644531 740.121094 C 906.140625 751.667969 907.617188 757.308594 906.261719 769.179688 C 905.324219 777.367188 905.378906 777.828125 908.289062 785.722656 C 909.640625 789.378906 909.714844 790.234375 909.050781 794.195312 C 907.207031 805.175781 900.476562 815.929688 892.019531 821.402344 C 887.761719 824.160156 887.238281 823.996094 887.238281 819.898438 Z M 887.238281 819.898438 " fill-opacity="1" fill-rule="nonzero"/><path fill="#f4efeb" d="M 752.6875 826.566406 C 747.535156 818.664062 744.582031 812.398438 742.859375 805.722656 C 740.539062 796.738281 738.855469 791.84375 734.8125 782.332031 C 731.433594 774.371094 731.066406 773.023438 731.019531 768.429688 C 730.992188 765.632812 731.207031 762.195312 731.496094 760.789062 L 732.023438 758.234375 L 738.394531 758.683594 C 744.414062 759.105469 744.976562 759.03125 748.515625 757.296875 C 752.757812 755.222656 757.507812 750.28125 761.070312 744.238281 C 766.875 734.394531 776.402344 720.621094 780.25 716.507812 C 786.90625 709.390625 792.875 705.714844 803.75 702.03125 C 815.195312 698.15625 821.464844 694.398438 821.464844 691.414062 C 821.464844 690.578125 823.371094 687.039062 825.703125 683.539062 C 828.03125 680.042969 830.679688 675.589844 831.582031 673.644531 C 832.484375 671.699219 833.671875 670.109375 834.21875 670.109375 C 836.269531 670.109375 846.480469 678.199219 854.757812 686.382812 C 868.828125 700.300781 875.828125 712.542969 879.511719 729.6875 C 881.007812 736.65625 881.035156 751.84375 879.5625 760.042969 C 876.148438 779.054688 865.035156 801.460938 849.777344 820.089844 C 847.492188 822.882812 846.703125 823.359375 843.304688 824.023438 C 841.175781 824.4375 837.753906 825.363281 835.703125 826.074219 C 832.59375 827.15625 828.652344 827.488281 811.972656 828.074219 C 789.292969 828.871094 776.023438 829.777344 766.25 831.191406 C 756.046875 832.671875 756.84375 832.945312 752.6875 826.566406 Z M 705.683594 674.921875 C 704.503906 671.09375 704.617188 669.152344 706.191406 666.21875 C 706.9375 664.824219 707.546875 663.289062 707.546875 662.804688 C 707.546875 661.507812 705.109375 656.941406 703.867188 655.910156 C 702.621094 654.875 702.496094 651.582031 703.546875 647.40625 C 704.207031 644.792969 704.09375 643.945312 702.585938 640.15625 C 701.644531 637.796875 700.660156 634.644531 700.390625 633.152344 C 699.730469 629.453125 698.339844 626.894531 696.707031 626.375 C 695.855469 626.105469 695.34375 625.351562 695.34375 624.363281 C 695.34375 623.496094 697.1875 616.574219 699.441406 608.984375 C 708.421875 578.722656 713.070312 562.148438 714.730469 554.441406 C 716.871094 544.503906 717.664062 528.382812 716.394531 520.53125 C 714.105469 506.335938 706.558594 492.777344 697.246094 486.136719 C 684.546875 477.082031 669.59375 478.570312 658.949219 489.953125 C 654.625 494.570312 650.292969 502.25 647.972656 509.40625 C 644.261719 520.84375 642.445312 535.21875 640.746094 566.703125 C 640.160156 577.519531 639.238281 590.4375 638.695312 595.417969 C 638.152344 600.394531 637.707031 604.589844 637.707031 604.738281 C 637.707031 604.890625 637.28125 605.015625 636.765625 605.015625 C 636.09375 605.015625 635.316406 602.339844 634.058594 595.691406 C 627.628906 561.757812 628.21875 527.730469 635.613281 505.851562 C 639.089844 495.558594 642.75 489.394531 649.207031 482.9375 C 658.238281 473.90625 665.742188 470.769531 681.949219 469.257812 C 691.878906 468.328125 692.410156 468.441406 701.105469 473.296875 C 713.84375 480.414062 723.316406 489.226562 732.746094 502.742188 C 747.125 523.355469 755.542969 532.941406 764.457031 538.867188 C 770.304688 542.757812 775.339844 544.84375 782.660156 546.414062 C 788.175781 547.59375 788.304688 547.59375 790.121094 546.265625 C 791.136719 545.523438 792.527344 543.792969 793.210938 542.417969 C 794.691406 539.441406 795.796875 539.269531 797.429688 541.765625 C 799.78125 545.359375 804.945312 550.363281 813.066406 556.921875 C 822.390625 564.453125 825.601562 568.382812 828.144531 575.375 C 829.761719 579.828125 829.921875 581.167969 829.929688 590.433594 L 829.941406 600.605469 L 827.484375 605.75 C 826.132812 608.578125 823.203125 613.765625 820.96875 617.277344 C 818.738281 620.789062 816.695312 624.347656 816.429688 625.1875 C 815.929688 626.769531 813.992188 627.144531 810.785156 626.285156 C 808.890625 625.777344 808.882812 625.023438 810.726562 620.867188 C 812.714844 616.375 812.527344 608.40625 810.433594 608.40625 C 809.027344 608.40625 802.199219 616.117188 797.394531 623.136719 C 792.769531 629.890625 792.570312 630.078125 789.59375 630.5 C 782.605469 631.492188 773.710938 637.5625 768.15625 645.128906 C 766.753906 647.042969 764.210938 651.210938 762.511719 654.390625 C 758.503906 661.886719 757.410156 662.652344 749.566406 663.4375 C 742.050781 664.191406 739.765625 665.066406 735.824219 668.703125 C 733.371094 670.960938 732.335938 671.464844 730.152344 671.464844 C 727.515625 671.464844 721.109375 674.746094 721.109375 676.097656 C 721.109375 676.425781 719.050781 676.664062 716.53125 676.628906 C 714.015625 676.59375 710.734375 676.816406 709.242188 677.121094 L 706.53125 677.679688 Z M 705.683594 674.921875 " fill-opacity="1" fill-rule="nonzero"/><path fill="#403d3c" d="M 633.328125 613.320312 C 633.074219 611.921875 630.746094 606.335938 628.152344 600.910156 C 622.484375 589.039062 621.738281 585.585938 623.140625 577.660156 C 625.035156 566.953125 624.550781 563.867188 619.179688 552.464844 C 615.71875 545.105469 615.667969 544.914062 615.675781 538.5625 C 615.679688 533.539062 616.179688 530.105469 617.953125 522.976562 C 621.007812 510.679688 620.804688 505.84375 616.714844 493.46875 C 614.089844 485.535156 613.792969 483.976562 613.753906 477.875 C 613.679688 466.664062 616.378906 459.078125 626.371094 442.425781 C 633.183594 431.074219 634.761719 426.722656 637.992188 410.363281 C 640.765625 396.320312 642.210938 392.132812 646.113281 386.859375 C 651.476562 379.613281 657.160156 375.25 672.027344 366.957031 C 682.375 361.1875 685.910156 358.703125 690.011719 354.320312 C 694.359375 349.667969 696.191406 346.191406 699.707031 335.898438 C 703.25 325.519531 705.855469 320.046875 709.667969 314.964844 C 715.246094 307.535156 723.953125 302.488281 738.0625 298.523438 C 748.171875 295.679688 756.804688 291.476562 763.148438 286.316406 C 773.5 277.894531 778.214844 276.855469 788.578125 280.707031 C 794.535156 282.925781 796.300781 283.53125 795.527344 283.101562 C 794.644531 282.605469 794.976562 280.214844 795.929688 280.214844 C 797.5625 280.214844 804.0625 282.683594 809.058594 285.199219 C 814.507812 287.945312 826.730469 296.074219 834.09375 301.851562 C 836.75 303.9375 841.996094 307.730469 845.753906 310.277344 C 858.6875 319.054688 864.949219 326.03125 870.601562 337.964844 C 876.945312 351.347656 879.484375 361.953125 878.933594 372.726562 C 878.433594 382.539062 875.878906 389.671875 867.84375 403.714844 C 858.933594 419.285156 858.054688 422.046875 857.296875 436.851562 C 856.558594 451.335938 855.34375 458.035156 852.28125 464.558594 C 849.601562 470.269531 847.898438 472.582031 839.601562 481.78125 C 828.742188 493.820312 826.25 499.257812 827.5625 508.050781 C 828.539062 514.601562 828.386719 524.277344 827.25 528.097656 C 826.703125 529.9375 824.832031 533.730469 823.09375 536.527344 C 818.527344 543.871094 817.425781 546.585938 817.410156 550.554688 C 817.394531 554.757812 816.390625 557.730469 815.09375 557.429688 C 813.238281 557 803.816406 548.675781 800.148438 544.226562 C 795.59375 538.707031 792.230469 532.347656 786.601562 518.621094 C 781.972656 507.339844 777.472656 499.808594 773.445312 496.621094 C 772.054688 495.519531 768.332031 493.414062 765.167969 491.9375 C 757.640625 488.429688 756.199219 486.832031 755.820312 481.578125 C 755.335938 474.882812 756.589844 471.777344 761.90625 466.515625 C 765.128906 463.328125 767.042969 461.941406 768.222656 461.941406 C 769.152344 461.941406 774.140625 463.75 779.304688 465.957031 C 784.472656 468.167969 790.429688 470.480469 792.542969 471.09375 C 799.441406 473.097656 801.1875 471.808594 810.4375 457.871094 C 813.035156 453.957031 815.789062 449.53125 816.558594 448.039062 C 817.328125 446.546875 819.046875 444.0625 820.382812 442.511719 C 822.609375 439.933594 823.167969 439.660156 827.054688 439.226562 C 831.933594 438.683594 836.882812 436.746094 837.5 435.140625 C 837.730469 434.535156 837.347656 432.152344 836.644531 429.851562 C 835.824219 427.175781 835.386719 423.78125 835.421875 420.445312 C 835.511719 412.628906 837.738281 408.625 848 397.820312 C 852.511719 393.074219 856.769531 387.9375 857.464844 386.40625 C 859.070312 382.871094 859.160156 375.054688 857.703125 365.480469 C 857.121094 361.660156 856.390625 355.484375 856.078125 351.753906 C 855.769531 348.023438 854.984375 343.664062 854.339844 342.0625 C 852.695312 337.988281 852.492188 338.804688 854.039062 343.285156 C 854.746094 345.332031 855.332031 347.804688 855.34375 348.78125 C 855.367188 350.394531 855.078125 350.59375 852.265625 350.910156 C 847.851562 351.40625 839.628906 355.65625 836.925781 358.832031 C 834.359375 361.855469 833.53125 363.398438 826.578125 378.097656 C 815.464844 401.605469 807.429688 409.914062 783.230469 422.90625 C 766.011719 432.15625 761.800781 435.824219 756.328125 446.34375 C 752.984375 452.769531 749.75 456.644531 745.789062 458.964844 C 737.765625 463.667969 723.5 466.375 703.480469 466.992188 C 670.414062 468.015625 660.617188 470.761719 649.171875 482.21875 C 640.824219 490.574219 636.148438 499.355469 632.65625 513.226562 C 626.628906 537.191406 627.230469 568.40625 634.347656 600.9375 C 635.449219 605.96875 636.351562 610.902344 636.351562 611.902344 C 636.351562 616.320312 634.066406 617.390625 633.328125 613.320312 Z M 851.636719 336.496094 C 851.058594 335.378906 850.433594 334.460938 850.246094 334.460938 C 850.0625 334.460938 850.382812 335.378906 850.960938 336.496094 C 851.539062 337.613281 852.164062 338.53125 852.351562 338.53125 C 852.539062 338.53125 852.21875 337.613281 851.636719 336.496094 Z M 849.265625 332.429688 C 848.867188 331.683594 848.386719 331.070312 848.199219 331.070312 C 848.015625 331.070312 848.1875 331.683594 848.585938 332.429688 C 848.988281 333.171875 849.464844 333.785156 849.652344 333.785156 C 849.839844 333.785156 849.664062 333.171875 849.265625 332.429688 Z M 846.777344 328.347656 C 846.113281 327.222656 844.859375 325.46875 843.992188 324.449219 C 843.128906 323.429688 843.542969 324.351562 844.921875 326.496094 C 847.527344 330.558594 848.878906 331.90625 846.777344 328.347656 Z M 842.484375 322 C 842.484375 321.859375 841.949219 321.324219 841.296875 320.8125 C 840.222656 319.972656 840.199219 319.996094 841.042969 321.070312 C 841.925781 322.199219 842.484375 322.558594 842.484375 322 Z M 837.738281 316.492188 C 836.089844 314.816406 834.589844 313.441406 834.402344 313.441406 C 834.21875 313.441406 835.414062 314.816406 837.058594 316.492188 C 838.707031 318.171875 840.207031 319.542969 840.394531 319.542969 C 840.582031 319.542969 839.386719 318.171875 837.738281 316.492188 Z M 828.230469 305.96875 C 822.328125 299.566406 818.457031 295.960938 822.121094 300.28125 C 824.390625 302.949219 833.910156 312.765625 834.238281 312.765625 C 834.378906 312.765625 831.675781 309.707031 828.230469 305.96875 Z M 819.429688 297.613281 C 819.429688 297.484375 818.742188 296.796875 817.90625 296.085938 L 816.378906 294.792969 L 817.671875 296.320312 C 818.882812 297.753906 819.429688 298.15625 819.429688 297.613281 Z M 810.953125 291.332031 C 809.355469 290.097656 805.304688 287.941406 806.03125 288.710938 C 806.667969 289.386719 811.515625 292.378906 811.972656 292.378906 C 812.15625 292.378906 811.699219 291.90625 810.953125 291.332031 Z M 805.191406 288.027344 C 805.191406 287.84375 803.664062 286.925781 801.800781 285.980469 C 799.933594 285.035156 798.410156 284.414062 798.410156 284.597656 C 798.410156 284.785156 799.859375 285.691406 801.628906 286.613281 C 805.25 288.5 805.191406 288.472656 805.191406 288.027344 Z M 805.191406 288.027344 " fill-opacity="1" fill-rule="nonzero"/><path fill="#403d3c" d="M 747.214844 931.828125 C 744.976562 931.511719 740.160156 930.328125 736.511719 929.195312 C 724.984375 925.617188 719.894531 925.402344 702.125 927.742188 C 687.441406 929.679688 672.511719 927.800781 653.640625 921.648438 C 648.046875 919.824219 639.507812 917.394531 634.667969 916.246094 C 629.828125 915.101562 624.625 913.433594 623.105469 912.542969 C 620.386719 910.949219 619.90625 910.242188 616.363281 902.550781 C 615 899.589844 613.546875 897.859375 610.1875 895.183594 C 605.683594 891.601562 603.800781 888.992188 603.800781 886.324219 C 603.800781 883.671875 606.472656 879.167969 610.859375 874.414062 C 613.203125 871.878906 615.433594 869.191406 615.820312 868.445312 C 616.207031 867.699219 616.742188 862.921875 617.011719 857.828125 C 617.296875 852.332031 617.867188 847.847656 618.40625 846.808594 C 619.21875 845.242188 619.191406 845.050781 618.128906 845.050781 C 616.71875 845.050781 614.132812 842.414062 611.703125 838.484375 C 609.363281 834.707031 607.582031 833.105469 603.125 830.769531 C 598.054688 828.109375 597.207031 827.351562 595.964844 824.386719 C 594.585938 821.082031 595.082031 818.113281 598.40625 809.742188 C 599.824219 806.171875 601.1875 802.054688 601.433594 800.589844 C 601.683594 799.125 602.027344 797.414062 602.195312 796.789062 C 602.457031 795.839844 602.011719 795.671875 599.449219 795.773438 C 594.566406 795.960938 593.933594 794.867188 594.148438 786.632812 C 594.253906 782.71875 593.890625 777.304688 593.304688 773.949219 C 589.992188 755.015625 594.503906 742.785156 611.222656 725.371094 C 619.335938 716.925781 618.972656 717.554688 617.644531 714.234375 C 616.15625 710.519531 616.613281 705.433594 618.875 700.492188 C 620.421875 697.117188 620.515625 696.523438 619.636719 695.792969 C 617.503906 694.023438 616.691406 691.136719 616.464844 684.539062 C 616.304688 679.851562 615.910156 677.371094 615.136719 676.191406 C 613.308594 673.394531 613.035156 669.320312 614.292969 663.65625 C 615.992188 656.027344 617.085938 653.878906 621.265625 649.996094 C 624.65625 646.847656 625.082031 646.132812 625.539062 642.875 C 626.199219 638.132812 628.570312 631.945312 630.691406 629.425781 C 631.621094 628.316406 632.671875 626.378906 633.019531 625.113281 C 634.085938 621.253906 631.496094 612.171875 626.117188 600.910156 C 620.464844 589.074219 619.683594 585.488281 621.117188 577.992188 C 622.289062 571.875 622.382812 566.398438 621.378906 562.632812 C 620.984375 561.144531 619.078125 556.566406 617.144531 552.464844 L 613.632812 545.003906 L 613.691406 538.222656 C 613.738281 532.984375 614.238281 529.519531 615.894531 522.984375 C 618.933594 511.015625 618.84375 506.390625 615.359375 495.644531 C 610.871094 481.789062 610.480469 476.160156 613.285156 465.667969 C 615.089844 458.929688 617.976562 452.820312 624.515625 441.9375 C 631.058594 431.046875 632.964844 425.988281 635.375 413.152344 C 637.589844 401.359375 639.339844 394.875 641.429688 390.757812 C 645.609375 382.507812 655.355469 373.914062 668.820312 366.613281 C 688.339844 356.023438 692.683594 351.296875 698.0625 334.800781 C 705.539062 311.882812 714.113281 303.675781 738.0625 296.527344 C 749.21875 293.199219 755.152344 290.320312 761.710938 285.0625 C 764.464844 282.855469 768.738281 279.914062 771.207031 278.523438 L 775.695312 276.003906 L 783.152344 276.390625 C 787.253906 276.601562 793.007812 277.394531 795.9375 278.148438 C 805.976562 280.730469 818.925781 288.027344 835.027344 300.167969 C 838.570312 302.839844 844.519531 307.121094 848.25 309.683594 C 861 318.441406 868.03125 327.089844 874.390625 341.839844 C 878.691406 351.816406 880.523438 358.972656 880.917969 367.347656 C 881.515625 380.097656 878.871094 388.582031 869.046875 405.4375 C 860.957031 419.320312 860.121094 422.039062 859.359375 436.851562 C 858.171875 459.878906 855.480469 467.058594 842.824219 480.925781 C 836.652344 487.6875 831.878906 493.941406 830.679688 496.835938 C 829.121094 500.601562 828.988281 503.039062 829.917969 511.042969 C 831.394531 523.734375 830.34375 528.351562 823.414062 539.652344 C 820.324219 544.695312 819.878906 545.898438 819.398438 550.585938 C 819.101562 553.484375 818.660156 556.363281 818.417969 556.984375 C 818.101562 557.785156 819.164062 559.328125 822.078125 562.285156 C 829.039062 569.355469 832.398438 578.695312 832.449219 591.113281 C 832.484375 600.417969 830.710938 605.28125 822.574219 618.199219 C 820.472656 621.539062 818.753906 624.519531 818.753906 624.828125 C 818.753906 625.136719 819.449219 625.65625 820.304688 625.980469 C 821.160156 626.304688 822.199219 626.984375 822.617188 627.488281 C 823.480469 628.53125 833.117188 653.414062 834.265625 657.566406 C 834.679688 659.054688 835.027344 662.109375 835.042969 664.34375 L 835.0625 668.414062 L 838.605469 670.578125 C 845.648438 674.878906 851.972656 680.664062 870.964844 700.160156 C 890.628906 720.347656 893.738281 724.25 895.035156 730.367188 C 895.300781 731.621094 897.210938 735.128906 899.28125 738.164062 C 907.472656 750.167969 909.660156 757.277344 908.371094 767.707031 C 907.300781 776.34375 907.34375 777.308594 908.996094 781.839844 C 909.777344 783.972656 910.769531 787.210938 911.199219 789.027344 L 911.988281 792.335938 L 925.886719 795.558594 C 1010.253906 815.121094 1052.164062 836.652344 1064.777344 866.902344 C 1066.207031 870.335938 1066.554688 872.269531 1066.570312 876.921875 C 1066.585938 881.894531 1066.324219 883.21875 1064.675781 886.585938 C 1058.375 899.414062 1040.394531 910.199219 1019.203125 913.855469 C 1015.890625 914.425781 1011.496094 914.894531 1009.4375 914.894531 C 1007.011719 914.894531 1003.121094 915.726562 998.394531 917.253906 C 988.910156 920.320312 981.691406 921.898438 964.246094 924.726562 C 916.699219 932.433594 882.917969 933.324219 794.511719 929.207031 C 781.738281 928.613281 780.042969 928.679688 770.101562 930.144531 C 756.003906 932.222656 752.085938 932.511719 747.214844 931.828125 Z M 765.363281 927.824219 C 770.472656 927.105469 774.941406 926.335938 775.292969 926.121094 C 776.59375 925.316406 777.550781 920.773438 777.140625 917.347656 C 776.914062 915.4375 775.496094 909.453125 773.988281 904.042969 C 771.902344 896.550781 771.089844 892.117188 770.574219 885.398438 C 768.261719 855.378906 767.203125 852.121094 752.273438 829.117188 C 744.496094 817.140625 743.160156 814.285156 740.183594 803.339844 C 737.980469 795.238281 736.453125 790.917969 731.902344 779.957031 C 729.375 773.867188 728.945312 772.140625 728.925781 768.015625 L 728.90625 763.195312 L 725.515625 766.167969 C 721.785156 769.4375 717.394531 771.078125 707.546875 772.890625 C 701.292969 774.039062 696.484375 775.496094 684.574219 779.847656 C 678.175781 782.1875 676.015625 782.667969 671.945312 782.667969 C 666.238281 782.667969 663.550781 781.828125 657.042969 777.996094 C 654.277344 776.371094 651.441406 775.210938 650.230469 775.210938 C 649.085938 775.210938 644.503906 776.4375 640.046875 777.933594 C 635.589844 779.433594 630.347656 780.847656 628.402344 781.078125 C 622.144531 781.816406 618.796875 779.175781 619.613281 774.152344 L 620.015625 771.664062 L 618.53125 772.929688 C 615.960938 775.117188 615.304688 776.089844 612.648438 781.671875 C 611.222656 784.664062 608.953125 788.558594 607.605469 790.324219 C 606.257812 792.085938 605.152344 794.214844 605.144531 795.050781 C 605.121094 798.167969 603.1875 805.59375 600.820312 811.648438 C 596.816406 821.890625 597.417969 824.59375 604.480469 828.113281 C 609.59375 830.664062 611.300781 832.1875 614.402344 836.984375 C 616.042969 839.523438 617.6875 841.785156 618.058594 842.011719 C 620.726562 843.660156 625.535156 835.859375 626.214844 828.777344 C 626.535156 825.445312 627.679688 822.007812 630.910156 814.667969 C 635.535156 804.164062 637.15625 801.550781 638.335938 802.707031 C 638.847656 803.210938 637.671875 806.53125 634.316406 814.058594 L 629.566406 824.695312 L 629.566406 831.179688 C 629.566406 838.636719 629.074219 839.929688 624.527344 844.355469 C 620.769531 848.011719 620.085938 850.191406 620.078125 858.484375 C 620.074219 867.941406 619.40625 869.761719 613.609375 876.136719 C 607.882812 882.433594 607.191406 883.53125 607.191406 886.316406 C 607.191406 887.792969 607.871094 888.949219 609.710938 890.597656 C 616.835938 896.980469 618.558594 899.058594 620.027344 903.027344 C 622.574219 909.898438 623.769531 910.675781 636.175781 913.511719 C 640.933594 914.597656 648.488281 916.699219 652.960938 918.183594 C 674.332031 925.277344 687.578125 926.707031 707.546875 924.074219 C 719.371094 922.515625 725.742188 922.933594 736.402344 925.972656 C 740.898438 927.257812 745.167969 928.457031 745.894531 928.640625 C 748.828125 929.386719 756.570312 929.0625 765.359375 927.824219 Z M 668.898438 921.449219 C 666.882812 920.777344 666.492188 920.308594 666.304688 918.339844 C 666.183594 917.0625 666.40625 914.726562 666.808594 913.140625 C 667.445312 910.601562 667.332031 909.835938 665.847656 906.644531 C 663.675781 901.984375 663.71875 899.609375 666.121094 891.433594 C 667.207031 887.742188 668.351562 882.890625 668.664062 880.65625 C 669.109375 877.496094 669.515625 876.539062 670.5 876.355469 C 671.671875 876.132812 671.726562 876.464844 671.265625 881.09375 C 670.992188 883.835938 669.890625 888.9375 668.816406 892.429688 C 666.414062 900.246094 666.40625 901.050781 668.695312 905.71875 C 670.453125 909.300781 670.492188 909.621094 669.683594 913.546875 C 669.21875 915.796875 669.046875 917.976562 669.300781 918.390625 C 670.054688 919.605469 677.214844 918.554688 686.527344 915.863281 C 698.878906 912.289062 705.050781 912.082031 717.238281 914.824219 C 728.679688 917.398438 733.125 917.480469 739.800781 915.238281 C 745.210938 913.421875 755.863281 907.941406 757.859375 905.945312 C 760.550781 903.253906 758.390625 895.984375 752.164062 886.777344 C 748.25 880.992188 737.355469 868.167969 734.222656 865.652344 L 731.582031 863.539062 L 727.960938 866.871094 C 716.046875 877.828125 693.816406 880.644531 672.519531 873.898438 C 666.695312 872.054688 664.152344 870.589844 664.152344 869.085938 C 664.152344 867.992188 666.238281 867.757812 667.234375 868.738281 C 668.617188 870.09375 678.425781 872.820312 685.847656 873.910156 C 702 876.277344 718.144531 872.464844 726.242188 864.367188 C 731.789062 858.816406 732.375 858.960938 740.761719 867.910156 C 753.566406 881.570312 762.03125 895.253906 762.097656 902.398438 C 762.140625 906.9375 760.800781 908.457031 752.980469 912.730469 C 739.195312 920.257812 731.359375 921.386719 717.039062 917.90625 C 705.578125 915.121094 699.472656 915.238281 688.5625 918.457031 C 683.898438 919.828125 678.710938 921.136719 677.035156 921.355469 C 675.355469 921.578125 673.371094 921.867188 672.625 922 C 671.882812 922.136719 670.203125 921.886719 668.898438 921.449219 Z M 677.375 866.050781 C 670.679688 865.027344 664.257812 863.289062 663.417969 862.273438 C 662.785156 861.515625 663.199219 860.699219 665.472656 858.230469 C 671.050781 852.183594 671.550781 847.714844 667.824219 837.253906 C 662.867188 823.34375 662.046875 820.289062 661.375 813.238281 C 660.996094 809.292969 660.894531 803.089844 661.152344 799.453125 C 661.558594 793.609375 661.761719 792.839844 662.882812 792.839844 C 664.070312 792.839844 664.152344 793.554688 664.152344 804.257812 C 664.152344 817.199219 664.835938 820.855469 669.5 832.765625 C 674.554688 845.683594 674.628906 851.011719 669.851562 857.730469 L 667.535156 860.988281 L 673.132812 862.203125 C 681.195312 863.957031 696.792969 864.0625 703.140625 862.40625 C 709.613281 860.714844 716.660156 857.367188 720.972656 853.929688 C 722.949219 852.355469 725.082031 851.167969 725.710938 851.289062 C 727.007812 851.539062 727.738281 853.867188 726.523438 853.867188 C 726.085938 853.867188 724.511719 854.914062 723.019531 856.1875 C 719.246094 859.421875 712.1875 863 706.179688 864.730469 C 700.382812 866.398438 684.4375 867.128906 677.375 866.050781 Z M 883.507812 927.085938 C 895.128906 925.109375 906.375 921.554688 926.226562 913.582031 C 936.296875 909.539062 947.585938 905.261719 951.3125 904.070312 C 964.496094 899.867188 980.382812 896.5 982.085938 897.554688 C 983.75 898.582031 981.800781 899.898438 977.542969 900.628906 C 963.449219 903.042969 950.59375 907.09375 926.90625 916.582031 C 917.207031 920.464844 905.765625 924.734375 901.476562 926.066406 L 893.679688 928.496094 L 902.15625 928.109375 C 933.078125 926.703125 968.492188 922.113281 988.734375 916.898438 C 1010.078125 911.394531 1026.953125 901.214844 1032.066406 890.757812 C 1036.519531 881.660156 1034.277344 869.046875 1026.757812 860.886719 C 1020.675781 854.289062 1006.539062 846.519531 991.820312 841.6875 C 974.707031 836.066406 933.566406 829.5 897.875 826.6875 L 887.828125 825.898438 L 884.652344 827.613281 C 880.835938 829.667969 865.222656 834.542969 858.941406 835.636719 C 849.796875 837.230469 836.664062 835.058594 832.945312 831.339844 L 830.96875 829.363281 L 810.449219 830.097656 C 781.824219 831.121094 761.664062 832.757812 760.210938 834.171875 C 759.902344 834.472656 761.039062 837.121094 762.742188 840.054688 C 769.765625 852.175781 771.667969 859.234375 772.960938 877.9375 C 773.621094 887.511719 774.398438 893.84375 775.335938 897.265625 C 779.898438 913.921875 780.246094 915.660156 779.996094 920.613281 L 779.746094 925.550781 L 789.148438 926 C 794.320312 926.246094 809.277344 926.769531 822.382812 927.160156 C 835.488281 927.554688 849.722656 928.128906 854.011719 928.441406 C 863.953125 929.160156 874.050781 928.699219 883.507812 927.085938 Z M 1022.175781 910.199219 C 1044.558594 905.242188 1061.417969 892.828125 1063.890625 879.484375 C 1064.925781 873.902344 1060.199219 862.171875 1053.820312 854.476562 C 1039.1875 836.820312 1008.589844 821.339844 961.488281 807.761719 C 949.96875 804.4375 928.019531 798.816406 916.996094 796.363281 L 911.15625 795.0625 L 909.988281 798.867188 C 907.550781 806.804688 904.140625 812.589844 898.675781 818.078125 L 893.460938 823.316406 L 895.605469 823.621094 C 896.78125 823.789062 904.917969 824.585938 913.683594 825.390625 C 941.621094 827.964844 973.125 832.996094 987.929688 837.25 C 1008.992188 843.300781 1026.488281 853.589844 1032.898438 863.699219 C 1035.679688 868.082031 1037.148438 873.828125 1037.140625 880.292969 C 1037.132812 886.792969 1036.546875 889.335938 1034.121094 893.421875 C 1031.628906 897.621094 1023.871094 904.894531 1018.136719 908.40625 C 1012.335938 911.960938 1012.957031 912.238281 1022.175781 910.199219 Z M 862.101562 831.773438 C 869.484375 830.085938 881.6875 826.019531 883.390625 824.683594 C 884.734375 823.625 885.070312 822.589844 885.417969 818.46875 C 885.644531 815.746094 886.453125 811.585938 887.210938 809.222656 C 888.851562 804.117188 888.945312 801.050781 887.59375 796.496094 C 886.394531 792.457031 883.550781 789.523438 880.394531 789.0625 L 878.082031 788.726562 L 871.210938 799.089844 C 864.269531 809.554688 860.304688 816.574219 861.328125 816.574219 C 862.382812 816.574219 867.921875 812.734375 871.917969 809.234375 C 876.09375 805.570312 877.34375 805.054688 877.980469 806.71875 C 878.839844 808.953125 863.835938 819.9375 859.894531 819.957031 C 859.214844 819.960938 857.386719 820.691406 855.828125 821.582031 C 852.746094 823.34375 846.335938 825.46875 840.449219 826.6875 C 838.398438 827.109375 836.261719 827.757812 835.703125 828.128906 C 833.636719 829.5 838.3125 831.613281 846.214844 832.878906 C 850.296875 833.535156 856.191406 833.125 862.101562 831.773438 Z M 768.914062 829.816406 C 777.648438 828.730469 795.441406 827.59375 816.378906 826.792969 C 828.265625 826.335938 832.328125 825.925781 836.382812 824.78125 C 839.179688 823.988281 842.6875 823.039062 844.179688 822.671875 C 846.554688 822.085938 847.535156 821.140625 852.097656 815.050781 C 865.449219 797.21875 874.347656 779.136719 878.074219 762.277344 C 878.683594 759.507812 879.347656 752.816406 879.550781 747.410156 C 879.859375 739.023438 879.699219 736.539062 878.453125 730.503906 C 875.046875 714.03125 867.371094 700.28125 854.390625 687.398438 C 849.425781 682.476562 835.652344 671.453125 834.488281 671.472656 C 834.222656 671.476562 832.683594 674.027344 831.0625 677.140625 C 829.441406 680.257812 826.898438 684.414062 825.40625 686.382812 C 823.917969 688.351562 822.582031 690.867188 822.441406 691.976562 C 822.304688 693.082031 821.8125 694.4375 821.355469 694.988281 C 820.0625 696.550781 810.886719 700.910156 804.511719 702.992188 C 787.699219 708.492188 779.914062 715.808594 765.179688 739.949219 C 762.105469 744.984375 758.570312 750.367188 757.316406 751.914062 C 752.34375 758.054688 744.992188 761.039062 737.859375 759.808594 C 735.769531 759.449219 733.664062 759.398438 733.179688 759.699219 C 732.554688 760.085938 732.296875 762.167969 732.296875 766.878906 C 732.296875 773.472656 732.324219 773.578125 736.253906 782.667969 C 738.429688 787.703125 741.421875 796.246094 742.90625 801.65625 C 745.898438 812.554688 747.429688 816.007812 753.351562 825.257812 C 757.222656 831.308594 757.46875 831.546875 759.421875 831.152344 C 760.539062 830.925781 764.8125 830.324219 768.914062 829.816406 Z M 897.175781 815.03125 C 902.105469 809.839844 905.078125 804.664062 907.171875 797.609375 C 908.671875 792.550781 908.535156 789.542969 906.5625 784.300781 C 904.714844 779.390625 904.40625 774.171875 905.515625 766.511719 C 906.625 758.835938 904.296875 751.15625 897.753906 740.929688 L 895.242188 737.007812 L 894.035156 740.574219 C 892.640625 744.703125 891.007812 746.703125 889.925781 745.621094 C 889.425781 745.121094 889.738281 743.339844 890.960938 739.691406 C 893.019531 733.566406 892.832031 731.367188 889.757812 725.515625 C 887.191406 720.621094 872.804688 705.351562 874.933594 709.777344 C 877.308594 714.722656 880.390625 724.238281 881.566406 730.269531 C 883.113281 738.199219 883.074219 751.78125 881.488281 760.292969 C 878.320312 777.257812 868.8125 797.992188 856.902344 813.902344 C 852.316406 820.027344 852.265625 820.148438 854.941406 818.566406 C 856.648438 817.5625 857.886719 815.941406 859.359375 812.792969 C 860.488281 810.386719 864.832031 803.386719 869.019531 797.238281 L 876.625 786.058594 L 879.265625 786.058594 C 888.699219 786.058594 893.90625 797.992188 889.957031 810.578125 C 889.21875 812.945312 888.605469 816.488281 888.601562 818.457031 L 888.59375 822.03125 L 890.492188 821.050781 C 891.535156 820.511719 894.542969 817.800781 897.175781 815.03125 Z M 601.632812 791.890625 C 604.0625 790.628906 605.597656 788.433594 609.875 780.09375 C 612.472656 775.027344 614.277344 772.421875 616.449219 770.609375 C 619.160156 768.339844 619.332031 768.023438 618.273438 767.25 C 617.523438 766.703125 614.757812 766.394531 610.566406 766.394531 C 603.730469 766.394531 602.640625 766.101562 603.890625 764.59375 C 604.429688 763.945312 606.578125 763.683594 611.410156 763.683594 C 621.566406 763.683594 623.382812 765.183594 622.585938 772.914062 C 622.242188 776.25 622.355469 776.695312 623.800781 777.644531 C 625.839844 778.976562 629.84375 778.285156 639.582031 774.910156 C 648.183594 771.929688 652.335938 771.757812 656.703125 774.199219 C 666.941406 779.917969 670.640625 780.859375 676.824219 779.332031 C 681.453125 778.1875 685.773438 775.058594 694.390625 766.601562 C 700.542969 760.558594 702.363281 758.296875 704.394531 754.160156 C 707.679688 747.46875 709.398438 740.164062 710.214844 729.441406 C 711.175781 716.769531 712.113281 712.148438 713.722656 712.148438 C 715.21875 712.148438 715.347656 713.558594 714.332031 718.914062 C 713.960938 720.871094 713.359375 726.402344 712.992188 731.203125 C 712.144531 742.328125 710.890625 747.683594 707.4375 754.867188 C 705.109375 759.71875 703.617188 761.679688 698.019531 767.242188 C 694.363281 770.878906 691.460938 773.855469 691.578125 773.855469 C 691.691406 773.855469 692.816406 773.421875 694.078125 772.898438 C 695.339844 772.371094 698.351562 771.601562 700.773438 771.1875 C 707.839844 769.980469 717.214844 767.644531 719.394531 766.542969 C 720.503906 765.984375 723.792969 763.429688 726.703125 760.863281 L 731.996094 756.199219 L 738.347656 756.644531 C 744.03125 757.046875 745.019531 756.9375 747.753906 755.613281 C 751.683594 753.710938 755.90625 749.152344 760.058594 742.324219 C 777.261719 714.0625 784.960938 706.546875 803.15625 700.25 C 812.734375 696.9375 819.429688 693.402344 819.429688 691.660156 C 819.429688 690.925781 819.085938 686.617188 818.667969 682.082031 C 818.007812 674.921875 817.476562 672.683594 814.601562 665.023438 C 809.578125 651.632812 809.640625 651.726562 804.550781 649.914062 C 798.644531 647.808594 798.1875 647.355469 798.707031 644.109375 C 799.328125 640.230469 797.476562 635.101562 794.996094 633.820312 C 786.597656 629.476562 772.761719 638.84375 764.523438 654.445312 C 759.730469 663.523438 758.25 664.589844 749.382812 665.351562 C 742.773438 665.917969 741.332031 666.390625 737.507812 669.246094 L 735.261719 670.921875 L 738.019531 673.28125 C 741.070312 675.894531 744.511719 682.4375 746.816406 690.015625 C 748.5625 695.753906 748.574219 696.554688 746.917969 696.554688 C 745.851562 696.554688 745.253906 695.417969 743.792969 690.621094 C 740.789062 680.773438 737.804688 675.851562 733.625 673.871094 C 730.558594 672.414062 727.351562 672.898438 724.578125 675.234375 L 722.578125 676.914062 L 724.828125 680.648438 C 727.707031 685.429688 732.945312 699.519531 732.386719 700.976562 C 731.535156 703.191406 730.265625 701.410156 727.511719 694.132812 C 722.253906 680.246094 720.574219 678.097656 714.988281 678.140625 C 713.050781 678.15625 711.28125 678.355469 711.058594 678.578125 C 710.832031 678.804688 710.582031 680.730469 710.5 682.855469 C 710.070312 694.3125 697.964844 719 687.261719 730.242188 C 681.402344 736.402344 674.328125 742.601562 661.097656 753.175781 C 645.835938 765.371094 644.675781 766.175781 643.695312 765.199219 C 643.300781 764.804688 643.179688 764.152344 643.429688 763.746094 C 643.679688 763.34375 650.539062 757.699219 658.671875 751.195312 C 684.136719 730.851562 691.0625 723.230469 699.421875 706.386719 C 704.757812 695.632812 707.546875 687.644531 707.546875 683.125 L 707.546875 680.042969 L 706.023438 681.433594 C 703.703125 683.546875 701.78125 684.347656 699.046875 684.347656 C 696.480469 684.347656 696.089844 684.042969 690.0625 677.324219 C 687.394531 674.351562 671.210938 666 664.996094 664.390625 C 659.761719 663.03125 651.964844 663.019531 648.761719 664.359375 C 647.40625 664.925781 644.859375 666.730469 643.105469 668.371094 C 640.695312 670.625 638.757812 671.699219 635.175781 672.765625 C 629.316406 674.511719 628.210938 674.535156 628.210938 672.902344 C 628.210938 671.894531 629.398438 671.253906 633.808594 669.878906 C 638.242188 668.496094 639.960938 667.566406 642.078125 665.398438 C 645.796875 661.589844 649.609375 660.265625 656.691406 660.320312 C 664.265625 660.382812 669.460938 662.046875 681.417969 668.25 C 689.664062 672.527344 691.269531 673.640625 693.871094 676.890625 C 697.648438 681.605469 699.425781 682.398438 701.953125 680.5 C 703.921875 679.019531 704.058594 677.964844 703.105469 671.730469 C 702.78125 669.621094 703.023438 668.265625 704.09375 666.164062 C 705.976562 662.476562 705.921875 662.039062 703.054688 657.875 C 700.707031 654.460938 700.621094 654.132812 701.109375 650.507812 C 701.890625 644.679688 701.730469 643.070312 699.773438 637.222656 C 698.777344 634.238281 697.753906 631.074219 697.5 630.1875 C 697.140625 628.933594 695.828125 628.113281 691.613281 626.5 C 685.515625 624.167969 685.519531 624.167969 660.421875 624.9375 C 651.832031 625.199219 644.253906 625.785156 641.320312 626.414062 C 636.941406 627.355469 636.21875 627.75 634.058594 630.386719 C 631.296875 633.753906 628.210938 641.375 628.210938 644.828125 C 628.210938 646.808594 627.511719 647.910156 623.851562 651.703125 C 619.960938 655.734375 619.34375 656.761719 618.089844 661.285156 C 616.613281 666.609375 616.273438 672.472656 617.335938 674.15625 C 618.125 675.402344 618.15625 675.363281 620.386719 670.605469 C 622.457031 666.1875 623.929688 665.167969 629.8125 664.082031 C 632.746094 663.539062 634.574219 662.679688 636.917969 660.742188 C 641.3125 657.113281 649.554688 652.730469 654.328125 651.488281 C 658.820312 650.316406 668.574219 650.097656 671.226562 651.105469 C 672.183594 651.46875 672.964844 652.207031 672.964844 652.746094 C 672.964844 653.558594 671.882812 653.664062 666.695312 653.355469 C 662.054688 653.082031 659.28125 653.277344 656.042969 654.109375 C 650.972656 655.414062 641.527344 660.355469 639.0625 662.996094 C 636.792969 665.429688 634.648438 666.449219 630.585938 667.023438 C 626.0625 667.664062 624.488281 668.796875 622.789062 672.636719 C 622.007812 674.40625 620.84375 676.46875 620.203125 677.21875 C 619.25 678.34375 619.082031 679.695312 619.269531 684.878906 L 619.496094 691.171875 L 622.296875 693.863281 C 623.835938 695.34375 625.277344 696.554688 625.5 696.554688 C 625.71875 696.554688 628.328125 694.386719 631.292969 691.734375 C 637.988281 685.753906 641.664062 683.859375 649.078125 682.5625 C 654.742188 681.574219 658.207031 680.316406 659.0625 678.929688 C 659.8125 677.714844 662.117188 678.152344 662.117188 679.511719 C 662.117188 681.839844 657.527344 684.183594 650.660156 685.363281 C 642.679688 686.734375 639.324219 688.433594 632.71875 694.429688 C 627.070312 699.5625 625.304688 700.511719 623.78125 699.246094 C 622.972656 698.574219 622.570312 698.984375 621.4375 701.625 C 619.332031 706.539062 619.046875 709.683594 620.394531 713.203125 C 621.074219 714.992188 621.386719 716.988281 621.136719 717.984375 C 620.898438 718.925781 617.515625 723.066406 613.613281 727.183594 C 603.417969 737.949219 598.460938 745.84375 596.035156 755.179688 C 594.71875 760.25 594.710938 764.488281 596.003906 771.820312 C 596.5625 774.992188 597.019531 780.8125 597.019531 784.761719 C 597.019531 788.707031 597.226562 792.140625 597.472656 792.386719 C 598.183594 793.097656 599.640625 792.921875 601.632812 791.890625 Z M 621.945312 748.609375 C 621.027344 745.859375 625.136719 735.203125 629.636719 728.664062 C 633.78125 722.636719 639.644531 716.414062 645.792969 711.511719 C 652.945312 705.808594 670.6875 694.523438 672.507812 694.519531 C 675.46875 694.519531 672.71875 697.140625 663.8125 702.816406 C 646.269531 714 638.636719 720.703125 631.855469 730.898438 C 628.117188 736.515625 624.824219 743.582031 624.824219 745.984375 C 624.824219 748.894531 622.6875 750.839844 621.945312 748.609375 Z M 827.445312 677.359375 C 831.394531 670.414062 832.660156 665.972656 831.984375 661.441406 C 831.324219 657.019531 821.054688 629.957031 819.640625 628.917969 C 818.972656 628.421875 816.453125 628.070312 813.609375 628.070312 C 809.027344 628.070312 808.703125 628.167969 808.320312 629.6875 C 807.824219 631.664062 805.976562 632.535156 805.410156 631.054688 C 805.1875 630.472656 806.292969 626.773438 807.867188 622.832031 C 810.078125 617.296875 810.632812 615.152344 810.304688 613.394531 C 810.066406 612.140625 809.640625 611.117188 809.355469 611.117188 C 808.441406 611.117188 805.488281 614.640625 799.972656 622.316406 L 794.601562 629.785156 L 796.640625 631.132812 C 799.664062 633.125 801.316406 636.484375 801.753906 641.539062 L 802.140625 645.980469 L 804.910156 646.78125 C 809.648438 648.152344 811.667969 649.542969 812.84375 652.261719 C 818.039062 664.253906 820.804688 672.492188 821.164062 677.058594 C 821.742188 684.410156 822.023438 685.445312 823.132812 684.285156 C 823.636719 683.761719 825.574219 680.644531 827.445312 677.359375 Z M 717.269531 675.246094 C 719.464844 675.605469 720.15625 675.402344 721.675781 673.945312 C 723.921875 671.796875 727.855469 670.109375 730.625 670.109375 C 732.113281 670.109375 733.210938 669.53125 734.390625 668.128906 C 737.007812 665.015625 741.34375 663.296875 748.183594 662.65625 C 756.488281 661.875 757.625 661.082031 761.789062 653.167969 C 763.667969 649.59375 766.742188 644.769531 768.621094 642.445312 C 774.242188 635.5 784.210938 629.425781 789.984375 629.425781 C 791.125 629.425781 792.796875 627.570312 796.96875 621.667969 C 803.636719 612.226562 806.132812 609.332031 808.765625 607.96875 C 811.539062 606.535156 812.519531 607.652344 813.066406 612.863281 C 813.421875 616.285156 813.21875 617.625 811.792969 621.152344 L 810.09375 625.355469 L 812.726562 625.355469 C 814.320312 625.355469 815.363281 625.035156 815.363281 624.546875 C 815.363281 624.101562 817.308594 620.648438 819.691406 616.878906 C 827.574219 604.398438 829.609375 599.105469 829.589844 591.160156 C 829.566406 581.492188 826.171875 571.359375 821.0625 565.703125 C 819.636719 564.128906 814.855469 559.933594 810.429688 556.382812 C 806.007812 552.832031 800.820312 547.96875 798.902344 545.578125 L 795.414062 541.222656 L 794.234375 543.523438 C 791.695312 548.46875 787.527344 549.175781 777.632812 546.324219 C 768.164062 543.597656 762.644531 540.09375 753.65625 531.09375 C 746.433594 523.863281 742.820312 519.265625 730.21875 501.292969 C 725.097656 493.988281 714.792969 483.601562 708.207031 479.109375 C 705.398438 477.195312 700.363281 474.21875 697.023438 472.5 C 690.996094 469.398438 690.902344 469.375 685.855469 469.773438 C 667.261719 471.246094 656.117188 476.082031 647.375 486.46875 C 630.625 506.363281 625.988281 547.632812 635.121094 595.519531 C 636.492188 602.730469 636.644531 603.113281 637.089844 600.605469 C 637.875 596.191406 638.996094 581.535156 640.097656 561.277344 C 642.050781 525.242188 644.5 511.679688 651.480469 498.234375 C 658.542969 484.632812 671.480469 477.328125 684.65625 479.503906 C 691.957031 480.710938 696.261719 483.082031 702.503906 489.34375 C 712.113281 498.980469 717.304688 511.925781 718.148438 528.359375 C 718.917969 543.394531 716.152344 556.914062 703.921875 597.90625 C 700.023438 610.96875 696.742188 622.257812 696.621094 622.996094 C 696.496094 623.804688 697.261719 625.179688 698.539062 626.441406 C 699.890625 627.777344 700.824219 629.507812 701.097656 631.1875 C 701.332031 632.640625 702.152344 635.511719 702.917969 637.5625 C 704.875 642.816406 705.132812 645.355469 704.132812 649.53125 C 703.320312 652.921875 703.355469 653.277344 704.644531 654.691406 C 708.367188 658.761719 709.222656 663.929688 706.816406 667.824219 C 705.460938 670.015625 705.449219 670.238281 706.496094 673.394531 L 707.585938 676.679688 L 711.128906 675.75 C 713.144531 675.21875 715.785156 675.003906 717.269531 675.246094 Z M 640.417969 623.613281 C 642.9375 622.902344 649.539062 622.359375 660.761719 621.941406 C 669.898438 621.597656 678.746094 621.128906 680.425781 620.898438 C 683.226562 620.511719 686.992188 621.386719 692.039062 623.597656 C 692.867188 623.960938 693.253906 623.609375 693.597656 622.175781 C 693.851562 621.128906 697.226562 609.589844 701.097656 596.539062 C 709.179688 569.296875 711.027344 562.570312 713.027344 553.140625 C 714.867188 544.460938 715.539062 527.816406 714.34375 520.417969 C 711.753906 504.367188 702.585938 490.066406 691.527344 484.828125 C 687.230469 482.792969 686.332031 482.621094 680.070312 482.621094 C 673.769531 482.621094 672.949219 482.78125 668.785156 484.832031 C 660.4375 488.941406 653.527344 498.21875 649.691406 510.472656 C 646.125 521.847656 644.507812 534.941406 642.78125 566.363281 C 641.597656 587.917969 640.53125 598.460938 638.039062 613.179688 C 636.402344 622.847656 636.160156 624.6875 636.519531 624.671875 C 636.613281 624.664062 638.367188 624.191406 640.417969 623.613281 Z M 633.964844 604.277344 C 626.230469 569.316406 625.519531 536.140625 631.96875 511.566406 C 637.078125 492.113281 646.054688 479.558594 659.65625 472.84375 C 668.976562 468.238281 676.914062 466.984375 702.582031 466.046875 C 736.417969 464.808594 747.449219 460.527344 755.320312 445.578125 C 760.910156 434.953125 765.777344 430.671875 781.796875 422.285156 C 794.203125 415.789062 801.28125 410.957031 807.628906 404.664062 C 814.628906 397.71875 819.167969 390.90625 825.015625 378.5625 C 832.882812 361.964844 833.832031 360.226562 836.554688 357.421875 C 839.847656 354.027344 847.925781 350.058594 851.542969 350.058594 L 854.195312 350.058594 L 853.757812 346.863281 C 852.679688 338.996094 843.359375 324.941406 829.191406 309.8125 C 817.855469 297.710938 814.402344 294.960938 802.140625 288.25 C 791.605469 282.488281 783.675781 279.53125 778.792969 279.542969 C 775.28125 279.554688 770.386719 282.097656 763.855469 287.300781 C 756.429688 293.214844 751.25 295.769531 739.691406 299.203125 C 726.046875 303.257812 719.828125 306.4375 713.957031 312.351562 C 708.214844 318.136719 704.992188 324.050781 700.417969 337.175781 C 694.539062 354.050781 691.125 357.792969 671.894531 368.414062 C 660.90625 374.484375 656.09375 377.910156 650.878906 383.375 C 643.65625 390.941406 641.851562 395.320312 638.378906 413.679688 C 635.730469 427.671875 634.019531 432.242188 627.296875 443.238281 C 613.871094 465.210938 611.988281 475.621094 618.09375 494.148438 C 621.878906 505.648438 622.042969 511.582031 618.921875 524.324219 C 615.183594 539.585938 615.277344 541.035156 620.742188 552.824219 C 624.972656 561.953125 625.953125 567.148438 624.71875 573.9375 C 624.222656 576.671875 623.820312 581.195312 623.824219 583.992188 C 623.835938 588.902344 624.003906 589.429688 628.726562 599.25 C 631.414062 604.84375 633.816406 610.449219 634.066406 611.703125 C 634.402344 613.40625 634.660156 613.722656 635.085938 612.960938 C 635.433594 612.339844 634.992188 608.933594 633.964844 604.277344 Z M 816.625 549.535156 C 817.199219 544.410156 817.59375 543.355469 821.121094 537.523438 C 823.246094 534.007812 825.59375 529.21875 826.335938 526.878906 C 827.722656 522.511719 827.738281 520.394531 826.476562 506.304688 C 825.660156 497.210938 828.199219 492.460938 842.214844 476.859375 C 848.453125 469.914062 852.453125 462.890625 854.382812 455.5 C 854.984375 453.183594 855.707031 446.027344 856.054688 438.886719 C 856.902344 421.523438 857.820312 418.492188 867.054688 402.609375 C 874.445312 389.894531 877.164062 382.65625 878.128906 373.105469 C 879.023438 364.257812 875.65625 351.285156 868.894531 337.511719 C 863.054688 325.628906 857.300781 319.453125 843.253906 309.984375 C 839.285156 307.3125 834.644531 303.960938 832.9375 302.535156 C 828.039062 298.453125 813.179688 288.636719 807.753906 285.90625 C 803.386719 283.707031 796.195312 280.871094 795.082031 280.910156 C 794.859375 280.917969 797.101562 282.171875 800.0625 283.695312 C 814.167969 290.960938 821.453125 296.570312 832.382812 308.582031 C 841.839844 318.976562 844.652344 322.589844 849.515625 330.613281 C 855.0625 339.757812 856.628906 343.941406 857.003906 350.570312 C 857.167969 353.457031 857.8125 359.027344 858.4375 362.941406 C 859.066406 366.855469 859.621094 373.417969 859.675781 377.519531 C 859.769531 384.605469 859.675781 385.144531 857.820312 388.300781 C 856.746094 390.128906 852.371094 395.265625 848.097656 399.714844 C 839.082031 409.097656 836.929688 412.867188 836.503906 420.015625 C 836.300781 423.40625 836.605469 425.648438 837.714844 428.980469 C 838.527344 431.425781 839.09375 434.121094 838.972656 434.96875 C 838.671875 437.097656 833.4375 439.589844 828.285156 440.058594 C 824.816406 440.371094 823.878906 440.765625 821.925781 442.71875 C 820.664062 443.980469 818.769531 446.609375 817.71875 448.558594 C 814.109375 455.242188 805.390625 467.703125 802.480469 470.332031 C 799.640625 472.898438 799.480469 472.953125 795.429688 472.625 C 792.34375 472.375 788.367188 471.074219 779.796875 467.503906 L 768.304688 462.71875 L 766.429688 464.050781 C 765.402344 464.785156 763.175781 466.769531 761.484375 468.457031 C 756.5 473.441406 754.972656 481.5 758.160156 485.976562 C 758.890625 486.996094 762.28125 489.128906 766.199219 491.027344 C 777.035156 496.28125 780.867188 501.128906 787.847656 518.394531 C 792.5625 530.074219 795.070312 535.09375 798.769531 540.257812 C 803.222656 546.476562 814.382812 556.765625 815.484375 555.664062 C 815.765625 555.382812 816.277344 552.625 816.625 549.535156 Z M 790.070312 543.816406 C 790.835938 542.980469 791.820312 541.171875 792.257812 539.800781 C 792.996094 537.503906 792.871094 536.949219 790.652344 532.542969 C 789.332031 529.917969 787 524.632812 785.472656 520.792969 C 778.765625 503.929688 774.828125 498.597656 765.960938 494.386719 C 758.335938 490.757812 756.617188 489.496094 754.996094 486.320312 C 751.523438 479.507812 754.703125 469.601562 762.25 463.71875 L 765.292969 461.347656 L 762.625 459.664062 C 761.160156 458.738281 758.902344 456.746094 757.609375 455.238281 L 755.261719 452.492188 L 752.851562 455.351562 C 749.890625 458.867188 744.441406 462.199219 738.226562 464.300781 C 731.601562 466.542969 717.996094 468.722656 710.609375 468.722656 C 707.164062 468.722656 702.921875 468.917969 701.175781 469.15625 L 698.007812 469.589844 L 703.285156 472.59375 C 716.703125 480.234375 725.246094 488.699219 738.050781 507.03125 C 745.875 518.238281 750.367188 523.839844 756.027344 529.46875 C 764.050781 537.441406 770.789062 541.457031 780.441406 544.011719 C 786.738281 545.679688 788.40625 545.644531 790.070312 543.816406 Z M 800.015625 468.667969 C 802.179688 466.96875 809.058594 457.183594 814.28125 448.378906 C 819.523438 439.542969 821.429688 437.863281 826.910156 437.242188 C 829.289062 436.972656 832.277344 436.316406 833.550781 435.785156 C 835.433594 435 835.796875 434.535156 835.507812 433.292969 C 833.296875 423.800781 832.960938 421.386719 833.386719 418 C 834.167969 411.746094 837.558594 406.214844 845.9375 397.542969 C 856.144531 386.976562 856.960938 385.492188 856.875 377.613281 C 856.835938 374.207031 856.324219 368.0625 855.730469 363.957031 C 854.066406 352.429688 854.175781 352.769531 852.015625 352.769531 C 849.175781 352.769531 840.855469 357.21875 838.347656 360.074219 C 837.132812 361.457031 834.046875 367.015625 831.484375 372.425781 C 822.117188 392.238281 819.046875 397.1875 810.875 405.664062 C 803.816406 412.988281 796.675781 417.980469 782.953125 425.1875 C 767.496094 433.300781 762.015625 438.03125 759.03125 445.832031 L 757.566406 449.65625 L 759.0625 452.078125 C 761.230469 455.582031 764.863281 457.792969 776.875 462.902344 C 795.011719 470.617188 796.929688 471.097656 800.015625 468.667969 Z M 800.015625 468.667969 " fill-opacity="1" fill-rule="nonzero"/><g clip-path="url(#658912da76)"><path fill="#403d3c" d="M 589.917969 374.441406 C 564.882812 379.050781 561.144531 382.789062 556.535156 407.828125 C 551.925781 382.789062 548.1875 379.050781 523.152344 374.441406 C 548.1875 369.832031 551.925781 366.097656 556.535156 341.058594 C 561.144531 366.097656 564.882812 369.832031 589.917969 374.441406 Z M 589.917969 374.441406 " fill-opacity="1" fill-rule="nonzero"/></g><g clip-path="url(#3b444390b1)"><path fill="#403d3c" d="M 985.386719 571.316406 C 960.347656 575.925781 956.613281 579.660156 952.003906 604.699219 C 947.394531 579.660156 943.65625 575.925781 918.617188 571.316406 C 943.65625 566.707031 947.394531 562.96875 952.003906 537.929688 C 956.613281 562.96875 960.347656 566.707031 985.386719 571.316406 Z M 985.386719 571.316406 " fill-opacity="1" fill-rule="nonzero"/></g></svg>